<svg width="483" height="371" viewBox="0 0 483 371" fill="none" xmlns="http://www.w3.org/2000/svg">
<path d="M332.666 233.322C334.152 232.898 335.955 232.261 338.078 231.412C340.2 230.563 342.322 230.139 344.444 230.139C347.202 230.139 349.749 230.139 352.083 230.139C354.417 229.927 356.964 229.821 359.723 229.821C361.845 229.821 363.861 229.927 365.771 230.139C367.893 230.139 369.802 230.457 371.5 231.094C371.925 231.094 372.455 231.2 373.092 231.412C373.728 231.624 374.577 232.261 375.638 233.322C377.76 233.959 379.776 235.02 381.686 236.505C383.596 237.991 385.294 239.794 386.779 241.916C388.477 244.038 389.962 246.267 391.235 248.601C392.721 250.723 393.994 252.845 395.055 254.967C396.116 256.665 396.753 258.893 396.965 261.652C397.389 264.41 397.92 266.638 398.556 268.336C398.556 271.307 398.663 274.172 398.875 276.93C399.299 279.689 399.511 282.554 399.511 285.525C399.511 290.406 399.405 295.074 399.193 299.53C398.981 303.987 398.875 308.655 398.875 313.536L398.238 324.04C398.238 324.889 397.814 326.375 396.965 328.497C396.116 330.619 395.586 332.21 395.373 333.271C394.737 335.393 393.888 337.94 392.827 340.911C391.766 343.669 391.023 345.261 390.599 345.685C389.538 346.746 388.795 347.701 388.371 348.55C387.946 349.399 387.522 350.248 387.097 351.097C386.885 351.946 386.461 352.688 385.824 353.325C385.4 353.961 384.551 354.598 383.278 355.235C382.217 355.659 380.943 356.296 379.458 357.145C377.972 358.206 376.593 359.161 375.32 360.009C374.259 360.434 373.728 360.752 373.728 360.964C373.728 361.389 372.986 361.813 371.5 362.238L365.771 363.511C363.224 363.935 361.102 364.041 359.404 363.829C357.919 363.617 356.221 363.511 354.311 363.511C348.37 363.511 342.428 362.344 336.486 360.009C334.576 360.009 332.666 359.585 330.756 358.736C329.059 357.887 327.786 356.932 326.937 355.871C325.876 355.022 324.815 354.068 323.754 353.007C322.693 352.158 321.632 351.203 320.571 350.142C318.873 348.232 317.494 346.322 316.432 344.412C315.371 342.502 314.31 340.486 313.249 338.364C312.188 336.03 311.021 333.696 309.748 331.361C308.475 328.815 307.626 326.056 307.201 323.085C306.777 318.205 306.353 313.748 305.928 309.716C305.716 305.684 305.61 301.652 305.61 297.621V284.57C305.398 284.145 305.292 283.297 305.292 282.023C305.292 280.75 305.398 279.901 305.61 279.477C305.61 278.416 305.61 277.355 305.61 276.294C305.822 275.021 306.034 273.853 306.247 272.792C306.459 271.095 306.565 269.397 306.565 267.699C306.565 266.002 307.095 264.304 308.156 262.606C307.944 263.031 308.05 262.713 308.475 261.652C309.111 260.378 309.748 259.105 310.385 257.832C311.021 256.346 311.552 255.073 311.976 254.012C312.401 252.951 312.613 252.527 312.613 252.739L314.841 248.601C315.478 247.964 316.114 247.221 316.751 246.373C317.387 245.524 318.236 244.569 319.297 243.508C320.571 242.447 322.162 241.068 324.072 239.37C326.194 237.672 329.059 235.656 332.666 233.322ZM355.903 286.161C355.054 286.161 354.205 286.586 353.356 287.435C352.72 288.283 352.295 289.026 352.083 289.663C350.598 292.846 349.855 295.499 349.855 297.621C349.855 303.35 351.871 307.17 355.903 309.08C356.964 309.08 357.813 308.761 358.449 308.125C359.298 307.276 359.723 306.427 359.723 305.578C359.723 303.456 359.935 301.016 360.359 298.257C360.996 295.499 360.784 292.634 359.723 289.663C358.662 288.602 358.025 287.753 357.813 287.116C357.601 286.48 356.964 286.161 355.903 286.161Z" fill="#F6C944" style="fill:#F6C944;fill:color(display-p3 0.9647 0.7882 0.2667);fill-opacity:1;"/>
<path d="M255.862 345.049C256.286 340.168 256.392 335.818 256.18 331.998C255.968 327.966 255.862 324.465 255.862 321.494C255.225 318.947 254.801 316.401 254.588 313.854C254.376 311.096 254.058 308.549 253.633 306.215C252.572 303.244 251.83 300.273 251.405 297.302C251.193 294.119 250.556 291.042 249.495 288.071C249.495 284.888 248.859 281.917 247.585 279.159C246.524 276.188 244.508 273.641 241.538 271.519C239.203 270.458 237.081 269.503 235.171 268.654C233.262 267.806 231.246 267.381 229.124 267.381C228.062 268.018 226.259 269.079 223.712 270.564C221.378 272.05 219.68 273.96 218.619 276.294C217.558 278.84 216.603 281.175 215.754 283.297C215.118 285.206 214.375 286.798 213.526 288.071C212.253 290.193 211.616 292.74 211.616 295.711C211.616 298.682 211.51 301.334 211.298 303.668C211.298 304.093 211.192 305.154 210.98 306.852C210.768 308.337 210.555 310.035 210.343 311.945C210.131 313.854 209.919 315.658 209.707 317.356C209.494 318.841 209.388 319.796 209.388 320.221L206.842 338.683C206.842 340.168 206.736 341.653 206.523 343.139C206.523 344.412 206.523 345.792 206.523 347.277C206.523 348.338 206.417 349.399 206.205 350.46C205.993 351.521 205.887 352.582 205.887 353.643H203.977C201.431 354.068 198.672 354.28 195.701 354.28C192.942 354.28 189.653 354.068 185.833 353.643C184.772 353.431 183.817 353.219 182.969 353.007C182.332 352.794 182.014 351.627 182.014 349.505C182.014 346.959 181.908 344.624 181.695 342.502C181.695 340.38 181.695 338.152 181.695 335.818C181.908 332.635 182.014 329.452 182.014 326.269C182.014 322.873 181.695 319.266 181.059 315.446C181.059 312.687 180.74 309.716 180.104 306.533C179.467 303.35 178.937 300.273 178.512 297.302C178.088 294.544 177.876 291.785 177.876 289.026C177.876 286.055 177.345 283.403 176.284 281.068C175.647 278.946 174.905 277.037 174.056 275.339C173.419 273.429 172.57 271.413 171.509 269.291C171.297 268.867 171.085 268.654 170.873 268.654C170.661 268.442 170.448 268.23 170.236 268.018L168.008 267.063C165.674 265.577 162.809 264.516 159.414 263.88H158.14L151.138 264.835C146.893 265.471 143.498 266.957 140.952 269.291C134.798 275.445 130.766 283.615 128.856 293.801C127.583 295.711 126.84 297.727 126.628 299.849C126.415 301.759 126.097 303.668 125.673 305.578C125.248 307.913 124.93 310.353 124.718 312.899C124.718 315.234 124.612 317.568 124.4 319.902C124.4 321.6 124.081 323.298 123.445 324.995C123.02 326.693 123.02 328.284 123.445 329.77C123.445 330.194 123.338 331.149 123.126 332.635C123.126 334.12 123.02 335.712 122.808 337.409C122.808 339.107 122.702 340.699 122.49 342.184C122.49 343.669 122.49 344.624 122.49 345.049C122.065 345.898 121.853 347.595 121.853 350.142C121.853 352.688 121.747 354.174 121.535 354.598C120.474 354.598 119.2 354.704 117.715 354.916C116.442 355.341 115.062 355.765 113.577 356.19C112.304 356.614 110.818 356.72 109.121 356.508C107.423 356.296 105.831 355.977 104.346 355.553C101.163 354.916 98.8286 354.598 97.3432 354.598C95.8577 354.598 93.9479 354.28 91.6136 353.643C91.6136 352.37 91.5075 350.778 91.2953 348.869C91.2953 346.746 91.0831 344.624 90.6586 342.502C90.4464 340.168 90.2342 337.94 90.022 335.818C90.022 333.696 90.022 332.104 90.022 331.043C90.022 330.407 89.9159 329.346 89.7037 327.86C89.7037 326.162 89.5976 324.465 89.3854 322.767C89.3854 320.857 89.2793 319.16 89.0671 317.674C88.8549 315.976 88.7488 314.809 88.7488 314.173C88.5366 312.051 88.4305 310.141 88.4305 308.443C88.4305 306.745 88.4305 304.836 88.4305 302.714C88.6427 300.591 88.7488 298.576 88.7488 296.666C88.7488 294.756 88.7488 292.846 88.7488 290.936V264.516C88.7488 263.88 88.7488 262.288 88.7488 259.742C88.961 256.983 89.0671 254.118 89.0671 251.147C89.2793 248.176 89.3854 245.418 89.3854 242.871C89.5976 240.113 89.7037 238.415 89.7037 237.778C90.7648 237.778 92.1441 237.672 93.8417 237.46C95.5394 237.248 96.9187 237.142 97.9798 237.142C100.102 237.142 102.012 237.142 103.709 237.142C105.619 236.929 107.529 236.823 109.439 236.823C111.561 236.823 112.622 236.823 112.622 236.823C112.622 236.611 113.046 236.611 113.895 236.823C114.532 238.733 114.744 240.006 114.532 240.643C114.532 241.068 114.744 242.022 115.169 243.508C115.381 244.569 115.593 245.842 115.805 247.328C116.23 248.813 116.442 250.086 116.442 251.147V252.739C118.352 250.829 120.261 249.344 122.171 248.283C124.081 247.009 125.567 245.842 126.628 244.781C129.599 242.447 132.676 240.855 135.859 240.006C139.042 239.158 142.649 238.415 146.681 237.778L161.005 236.187H163.233C166.416 236.823 169.281 237.566 171.828 238.415C174.374 239.052 177.027 240.219 179.785 241.916L187.743 248.919C189.016 249.768 189.865 250.511 190.29 251.147C191.351 251.996 192.306 253.057 193.154 254.33C194.216 255.391 195.17 256.983 196.019 259.105C197.08 258.044 198.035 257.089 198.884 256.24C199.733 255.179 200.688 254.118 201.749 253.057C202.173 252.633 202.704 252.208 203.34 251.784C204.189 251.36 205.144 250.935 206.205 250.511C207.903 249.45 209.176 248.601 210.025 247.964C210.874 247.115 212.147 246.267 213.845 245.418C214.906 244.993 216.073 244.569 217.346 244.145C218.831 243.72 220.105 243.19 221.166 242.553C226.259 240.431 230.821 240.006 234.853 241.28C239.097 242.553 243.235 243.72 247.267 244.781C250.45 245.842 253.103 247.434 255.225 249.556C257.559 251.678 259.787 254.224 261.909 257.195L267.957 269.291C269.018 272.474 269.973 275.657 270.822 278.84C271.883 281.811 272.414 284.888 272.414 288.071C273.262 292.103 274.111 296.241 274.96 300.485C275.809 304.517 276.233 309.08 276.233 314.173C277.294 317.356 277.613 320.857 277.188 324.677C276.764 328.497 277.082 331.892 278.143 334.863V351.415C276.021 351.415 274.324 351.733 273.05 352.37C271.989 353.219 270.292 353.643 267.957 353.643C266.896 353.643 265.517 353.749 263.819 353.961C262.122 354.386 260.742 354.81 259.681 355.235C258.62 355.235 257.665 355.129 256.816 354.916C256.18 354.916 255.862 354.492 255.862 353.643V345.049Z" fill="#F6C944" style="fill:#F6C944;fill:color(display-p3 0.9647 0.7882 0.2667);fill-opacity:1;"/>
<path d="M476.087 130.19C476.512 134.434 476.618 138.253 476.406 141.649C476.193 145.044 475.875 148.227 475.451 151.198C475.451 152.471 475.132 153.426 474.496 154.063C472.374 154.487 469.933 154.912 467.175 155.336C464.416 155.548 461.869 155.548 459.535 155.336C457.625 155.124 455.715 155.23 453.806 155.654C451.896 155.867 450.516 155.973 449.668 155.973C449.668 154.699 449.561 153.532 449.349 152.471C449.137 151.41 449.137 149.925 449.349 148.015C449.561 146.317 449.561 144.513 449.349 142.604C449.349 140.694 449.349 138.89 449.349 137.192V121.595C449.137 116.714 449.031 111.728 449.031 106.635C449.031 101.542 448.925 98.1463 448.713 96.4487C448.5 94.5388 448.5 92.629 448.713 90.7191C449.137 88.8092 449.349 86.8994 449.349 84.9895C449.137 82.0186 449.031 79.0477 449.031 76.0768C449.243 72.8937 449.349 69.8167 449.349 66.8458C449.349 64.2994 449.243 61.0102 449.031 56.9782C448.819 52.7341 448.925 49.3388 449.349 46.7923C451.047 46.3679 453.169 46.1557 455.715 46.1557C458.262 46.1557 461.021 46.0496 463.992 45.8374C466.326 45.6252 468.66 45.5191 470.994 45.5191C473.329 45.5191 475.026 45.5191 476.087 45.5191C476.512 45.5191 476.618 46.1557 476.406 47.4289C476.406 48.49 476.406 49.2327 476.406 49.6571C476.193 54.9623 476.193 59.6308 476.406 63.6627C476.618 67.4825 476.512 71.5144 476.087 75.7585C476.3 80.0027 476.3 83.7163 476.087 86.8994C476.087 89.8703 475.875 93.4778 475.451 97.7219C475.451 98.3585 475.451 100.056 475.451 102.815C475.451 105.574 475.557 108.757 475.769 112.364C475.981 115.759 476.087 119.155 476.087 122.55C476.087 125.733 476.087 128.28 476.087 130.19ZM449.031 25.1472C448.819 24.0862 448.713 22.4946 448.713 20.3726C448.925 18.2505 449.031 16.0223 449.031 13.6881C449.031 12.627 448.925 11.6721 448.713 10.8233C448.713 9.97445 448.713 9.12563 448.713 8.2768C448.713 7.85238 448.713 7.53407 448.713 7.32187C448.925 7.10966 449.031 6.79135 449.031 6.36694H471.949C473.01 6.36694 473.647 6.47304 473.859 6.68525C474.071 6.68525 474.177 7.21577 474.177 8.2768V28.9669C472.904 29.1792 470.888 29.2853 468.13 29.2853C465.583 29.2853 462.93 29.2853 460.172 29.2853C457.413 29.2853 454.867 29.2853 452.532 29.2853C450.41 29.0731 449.349 28.7547 449.349 28.3303C449.137 27.6937 449.031 26.6327 449.031 25.1472Z" fill="#F6C944" style="fill:#F6C944;fill:color(display-p3 0.9647 0.7882 0.2667);fill-opacity:1;"/>
<path d="M288.943 49.3388C288.943 48.7022 288.837 48.0656 288.625 47.429C288.413 46.7923 288.413 46.1557 288.625 45.5191C288.837 45.5191 289.156 45.5191 289.58 45.5191C290.217 45.3069 290.747 45.2008 291.172 45.2008H293.081C294.142 44.9886 295.203 44.9886 296.265 45.2008C297.326 45.2008 298.387 45.0947 299.448 44.8825H308.997C309.421 44.8825 309.846 45.0947 310.27 45.5191C310.695 45.9435 311.013 46.2618 311.225 46.474L311.862 49.3388C311.862 49.9754 311.968 50.7182 312.18 51.567C312.604 53.2646 312.817 55.0684 312.817 56.9783C313.029 57.6149 313.135 58.2515 313.135 58.8881C313.135 60.1614 313.241 60.798 313.453 60.798C314.302 59.9491 314.939 59.1003 315.363 58.2515C315.788 57.1905 316.318 56.4477 316.955 56.0233C317.591 55.3867 318.016 54.9623 318.228 54.7501C318.652 54.5379 318.971 54.3257 319.183 54.1135C319.607 53.9013 320.138 53.689 320.774 53.4768C321.411 53.0524 322.366 52.4158 323.639 51.567C325.549 50.5059 327.247 49.6571 328.732 49.0205C330.43 48.3839 332.976 47.2167 336.372 45.5191C337.008 45.3069 338.069 44.9886 339.555 44.5642C341.252 44.1397 343.056 43.8214 344.966 43.6092C346.876 43.1848 348.786 42.9726 350.696 42.9726C352.818 42.7604 354.621 42.6543 356.107 42.6543C358.441 42.8665 360.351 43.1848 361.836 43.6092C363.322 43.8214 365.338 44.1397 367.884 44.5642C368.945 44.7764 370.643 44.9886 372.977 45.2008C375.524 45.413 377.221 45.7313 378.07 46.1557C383.375 49.1266 387.619 51.6731 390.803 53.7951C393.986 55.9172 396.744 58.782 399.079 62.3895C399.503 62.8139 400.14 63.3444 400.989 63.9811C401.837 64.4055 402.792 65.1482 403.853 66.2092C404.914 67.2703 405.869 68.7557 406.718 70.6656C407.779 72.3632 408.31 73.4243 408.31 73.8487C409.158 77.4562 410.113 80.4271 411.174 82.7614C412.235 84.8834 412.872 87.7482 413.084 91.3557C413.296 93.0534 413.827 94.9632 414.676 97.0853C415.525 98.9952 415.949 101.011 415.949 103.133C415.949 105.255 416.055 107.696 416.267 110.454C416.48 113.001 416.374 116.714 415.949 121.595C415.949 123.081 415.949 124.46 415.949 125.733C416.161 127.006 416.267 128.28 416.267 129.553V144.195C416.267 145.681 416.267 147.06 416.267 148.333C416.267 149.606 416.161 150.88 415.949 152.153C415.949 153.851 415.949 155.336 415.949 156.609C416.161 157.883 416.267 159.368 416.267 161.066C416.267 161.49 416.267 161.914 416.267 162.339C416.267 162.975 416.055 163.4 415.631 163.612C415.206 163.824 414.57 163.93 413.721 163.93C413.084 163.93 412.554 163.93 412.129 163.93C410.22 163.93 408.416 163.93 406.718 163.93C405.02 164.143 403.217 164.143 401.307 163.93L391.758 162.975C390.909 162.763 389.742 162.763 388.256 162.975C386.771 163.188 385.816 162.869 385.391 162.021C385.179 157.14 385.073 153.745 385.073 151.835C385.285 149.713 385.391 147.803 385.391 146.105C385.391 145.044 385.285 143.771 385.073 142.285C384.861 140.588 384.649 138.36 384.436 135.601L385.391 118.73C385.391 116.608 385.285 115.017 385.073 113.956C385.073 112.683 384.967 111.728 384.755 111.091C384.755 110.242 384.649 109.287 384.436 108.226C384.436 107.165 384.436 105.467 384.436 103.133C384.436 99.3135 383.694 95.4938 382.208 91.674C380.935 87.8543 379.343 84.0346 377.434 80.2149C376.373 78.0928 374.993 76.183 373.296 74.4853C371.598 72.7876 369.37 71.3022 366.611 70.029C366.187 69.8168 365.656 69.6045 365.019 69.3923C364.383 69.1801 363.852 69.074 363.428 69.074L356.107 68.4374C352.499 68.2252 348.786 68.8618 344.966 70.3473C341.146 71.8327 338.812 73.3182 337.963 74.8036C336.478 77.3501 335.311 79.26 334.462 80.5332C333.613 81.8064 332.764 83.0797 331.915 84.3529C331.703 84.9895 331.385 86.1567 330.96 87.8543C330.536 89.3398 330.005 91.2496 329.369 93.5839C328.944 95.706 328.52 98.0402 328.096 100.587C327.671 102.921 327.459 105.043 327.459 106.953C327.459 108.438 327.459 109.924 327.459 111.409C327.459 112.683 327.353 113.956 327.141 115.229L326.504 124.142L324.594 136.237C324.594 138.36 324.594 140.694 324.594 143.24C324.594 145.575 324.488 147.803 324.276 149.925V157.246C323.003 158.095 321.942 158.519 321.093 158.519C318.758 158.944 317.061 159.368 316 159.792C315.151 160.217 313.453 160.323 310.907 160.111C308.572 159.898 305.496 159.898 301.676 160.111C297.856 160.535 294.779 160.535 292.445 160.111C290.111 159.686 288.943 159.368 288.943 159.156C288.943 159.156 288.943 158.625 288.943 157.564C288.943 156.715 288.943 155.442 288.943 153.745C289.156 151.835 289.262 149.925 289.262 148.015C289.262 145.893 289.262 143.877 289.262 141.967C289.474 140.057 289.58 138.572 289.58 137.511C289.58 133.691 289.474 130.508 289.262 127.961C289.049 125.415 288.943 122.232 288.943 118.412C288.943 115.229 288.837 112.683 288.625 110.773C288.625 108.651 288.519 105.998 288.307 102.815C288.307 101.117 288.413 98.9952 288.625 96.4487C288.837 93.69 288.943 90.8252 288.943 87.8543C288.943 84.2468 288.837 80.7454 288.625 77.3501C288.625 73.9548 288.625 71.4083 288.625 69.7106C288.413 66.1031 288.307 62.7078 288.307 59.5247C288.307 56.1294 288.519 52.7341 288.943 49.3388Z" fill="#F6C944" style="fill:#F6C944;fill:color(display-p3 0.9647 0.7882 0.2667);fill-opacity:1;"/>
<path d="M255.695 130.19C256.119 134.434 256.225 138.253 256.013 141.649C255.801 145.044 255.483 148.227 255.058 151.198C255.058 152.471 254.74 153.426 254.103 154.063C251.981 154.487 249.541 154.912 246.782 155.336C244.024 155.548 241.477 155.548 239.143 155.336C237.233 155.124 235.323 155.23 233.413 155.654C231.503 155.867 230.124 155.973 229.275 155.973C229.275 154.699 229.169 153.532 228.957 152.471C228.745 151.41 228.745 149.925 228.957 148.015C229.169 146.317 229.169 144.513 228.957 142.604C228.957 140.694 228.957 138.89 228.957 137.192V121.595C228.745 116.714 228.639 111.728 228.639 106.635C228.639 101.542 228.532 98.1463 228.32 96.4487C228.108 94.5388 228.108 92.629 228.32 90.7191C228.745 88.8092 228.957 86.8994 228.957 84.9895C228.745 82.0186 228.639 79.0477 228.639 76.0768C228.851 72.8937 228.957 69.8167 228.957 66.8458C228.957 64.2994 228.851 61.0102 228.639 56.9782C228.426 52.7341 228.532 49.3388 228.957 46.7923C230.655 46.3679 232.777 46.1557 235.323 46.1557C237.87 46.1557 240.628 46.0496 243.599 45.8374C245.933 45.6252 248.268 45.5191 250.602 45.5191C252.936 45.5191 254.634 45.5191 255.695 45.5191C256.119 45.5191 256.225 46.1557 256.013 47.4289C256.013 48.49 256.013 49.2327 256.013 49.6571C255.801 54.9623 255.801 59.6308 256.013 63.6627C256.225 67.4825 256.119 71.5144 255.695 75.7585C255.907 80.0027 255.907 83.7163 255.695 86.8994C255.695 89.8703 255.483 93.4778 255.058 97.7219C255.058 98.3585 255.058 100.056 255.058 102.815C255.058 105.574 255.164 108.757 255.377 112.364C255.589 115.759 255.695 119.155 255.695 122.55C255.695 125.733 255.695 128.28 255.695 130.19ZM228.639 25.1472C228.426 24.0862 228.32 22.4946 228.32 20.3726C228.532 18.2505 228.639 16.0223 228.639 13.6881C228.639 12.627 228.532 11.6721 228.32 10.8233C228.32 9.97445 228.32 9.12563 228.32 8.2768C228.32 7.85238 228.32 7.53407 228.32 7.32187C228.532 7.10966 228.639 6.79135 228.639 6.36694H251.557C252.618 6.36694 253.255 6.47304 253.467 6.68525C253.679 6.68525 253.785 7.21577 253.785 8.2768V28.9669C252.512 29.1792 250.496 29.2853 247.737 29.2853C245.191 29.2853 242.538 29.2853 239.779 29.2853C237.021 29.2853 234.474 29.2853 232.14 29.2853C230.018 29.0731 228.957 28.7547 228.957 28.3303C228.745 27.6937 228.639 26.6327 228.639 25.1472Z" fill="#F6C944" style="fill:#F6C944;fill:color(display-p3 0.9647 0.7882 0.2667);fill-opacity:1;"/>
<path d="M173.797 154.063C174.222 149.182 174.328 144.832 174.116 141.012C173.903 136.98 173.797 133.479 173.797 130.508C173.161 127.961 172.736 125.415 172.524 122.868C172.312 120.11 171.994 117.563 171.569 115.229C170.508 112.258 169.765 109.287 169.341 106.316C169.129 103.133 168.492 100.056 167.431 97.0853C167.431 93.9022 166.794 90.9313 165.521 88.1727C164.46 85.2018 162.444 82.6553 159.473 80.5332C157.139 79.4722 155.017 78.5173 153.107 77.6684C151.197 76.8196 149.181 76.3952 147.059 76.3952C145.998 77.0318 144.194 78.0928 141.648 79.5783C139.314 81.0637 137.616 82.9736 136.555 85.3079C135.494 87.8543 134.539 90.1886 133.69 92.3107C133.054 94.2205 132.311 95.8121 131.462 97.0853C130.189 99.2074 129.552 101.754 129.552 104.725C129.552 107.696 129.446 110.348 129.234 112.683C129.234 113.107 129.128 114.168 128.916 115.866C128.703 117.351 128.491 119.049 128.279 120.959C128.067 122.868 127.855 124.672 127.642 126.37C127.43 127.855 127.324 128.81 127.324 129.235L124.778 147.697C124.778 149.182 124.671 150.668 124.459 152.153C124.459 153.426 124.459 154.806 124.459 156.291C124.459 157.352 124.353 158.413 124.141 159.474C123.929 160.535 123.823 161.596 123.823 162.657H121.913C119.366 163.082 116.608 163.294 113.637 163.294C110.878 163.294 107.589 163.082 103.769 162.657C102.708 162.445 101.753 162.233 100.904 162.021C100.268 161.808 99.9494 160.641 99.9494 158.519C99.9494 155.973 99.8433 153.638 99.6311 151.516C99.6311 149.394 99.6311 147.166 99.6311 144.832C99.8433 141.649 99.9494 138.466 99.9494 135.283C99.9494 131.887 99.631 128.28 98.9944 124.46C98.9944 121.701 98.6761 118.73 98.0395 115.547C97.4029 112.364 96.8724 109.287 96.4479 106.316C96.0235 103.558 95.8113 100.799 95.8113 98.0403C95.8113 95.0694 95.2808 92.4168 94.2198 90.0825C93.5832 87.9605 92.8404 86.0506 91.9916 84.3529C91.355 82.4431 90.5062 80.4271 89.4451 78.305C89.2329 77.8806 89.0207 77.6684 88.8085 77.6684C88.5963 77.4562 88.3841 77.244 88.1719 77.0318L85.9437 76.0769C83.6094 74.5914 80.7447 73.5304 77.3493 72.8938H76.0761L69.0733 73.8487C64.8292 74.4853 61.4338 75.9708 58.8874 78.305C52.7334 84.459 48.7014 92.629 46.7916 102.815C45.5183 104.725 44.7756 106.741 44.5634 108.863C44.3512 110.773 44.0329 112.683 43.6085 114.592C43.1841 116.927 42.8658 119.367 42.6536 121.914C42.6536 124.248 42.5475 126.582 42.3352 128.916C42.3352 130.614 42.0169 132.312 41.3803 134.009C40.9559 135.707 40.9559 137.298 41.3803 138.784C41.3803 139.208 41.2742 140.163 41.062 141.649C41.062 143.134 40.9559 144.726 40.7437 146.423C40.7437 148.121 40.6376 149.713 40.4254 151.198C40.4254 152.683 40.4254 153.638 40.4254 154.063C40.001 154.912 39.7888 156.609 39.7888 159.156C39.7888 161.702 39.6827 163.188 39.4705 163.612C38.4094 163.612 37.1362 163.718 35.6507 163.93C34.3775 164.355 32.9981 164.779 31.5127 165.204C30.2395 165.628 28.754 165.734 27.0564 165.522C25.3587 165.31 23.7672 164.991 22.2817 164.567C19.0986 163.93 16.7643 163.612 15.2789 163.612C13.7934 163.612 11.8836 163.294 9.54931 162.657C9.54931 161.384 9.44321 159.792 9.231 157.883C9.231 155.76 9.01879 153.638 8.59438 151.516C8.38217 149.182 8.16997 146.954 7.95776 144.832C7.95776 142.71 7.95776 141.118 7.95776 140.057C7.95776 139.421 7.85166 138.36 7.63945 136.874C7.63945 135.176 7.53335 133.479 7.32114 131.781C7.32114 129.871 7.21504 128.174 7.00283 126.688C6.79063 124.991 6.68452 123.823 6.68452 123.187C6.47232 121.065 6.36621 119.155 6.36621 117.457C6.36621 115.76 6.36621 113.85 6.36621 111.728C6.57842 109.606 6.68452 107.59 6.68452 105.68C6.68452 103.77 6.68452 101.86 6.68452 99.9501V73.5304C6.68452 72.8938 6.68452 71.3022 6.68452 68.7557C6.89673 65.9971 7.00283 63.1323 7.00283 60.1614C7.21504 57.1905 7.32114 54.4318 7.32114 51.8853C7.53335 49.1266 7.63945 47.429 7.63945 46.7924C8.70049 46.7924 10.0798 46.6862 11.7775 46.474C13.4751 46.2618 14.8545 46.1557 15.9155 46.1557C18.0376 46.1557 19.9474 46.1557 21.6451 46.1557C23.555 45.9435 25.4648 45.8374 27.3747 45.8374C29.4967 45.8374 30.5578 45.8374 30.5578 45.8374C30.5578 45.6252 30.9822 45.6252 31.831 45.8374C32.4676 47.7473 32.6798 49.0205 32.4676 49.6571C32.4676 50.0816 32.6798 51.0365 33.1043 52.5219C33.3165 53.583 33.5287 54.8562 33.7409 56.3417C34.1653 57.8271 34.3775 59.1003 34.3775 60.1614V61.7529C36.2874 59.8431 38.1972 58.3576 40.1071 57.2966C42.0169 56.0233 43.5024 54.8562 44.5634 53.7952C47.5343 51.4609 50.6113 49.8693 53.7944 49.0205C56.9775 48.1717 60.585 47.429 64.6169 46.7924L78.9409 45.2008H81.1691C84.3522 45.8374 87.217 46.5801 89.7634 47.429C92.3099 48.0656 94.9625 49.2327 97.7212 50.9304L105.679 57.9332C106.952 58.782 107.801 59.5248 108.225 60.1614C109.286 61.0102 110.241 62.0712 111.09 63.3445C112.151 64.4055 113.106 65.9971 113.955 68.1191C115.016 67.0581 115.971 66.1032 116.82 65.2543C117.669 64.1933 118.624 63.1323 119.685 62.0712C120.109 61.6468 120.64 61.2224 121.276 60.798C122.125 60.3736 123.08 59.9492 124.141 59.5248C125.839 58.4637 127.112 57.6149 127.961 56.9783C128.809 56.1295 130.083 55.2806 131.78 54.4318C132.841 54.0074 134.009 53.583 135.282 53.1586C136.767 52.7341 138.04 52.2036 139.101 51.567C144.194 49.4449 148.757 49.0205 152.789 50.2938C157.033 51.567 161.171 52.7341 165.203 53.7952C168.386 54.8562 171.039 56.4478 173.161 58.5698C175.495 60.6919 177.723 63.2384 179.845 66.2093L185.893 78.305C186.954 81.4881 187.909 84.6712 188.758 87.8543C189.819 90.8252 190.349 93.9022 190.349 97.0853C191.198 101.117 192.047 105.255 192.896 109.499C193.745 113.531 194.169 118.094 194.169 123.187C195.23 126.37 195.548 129.871 195.124 133.691C194.7 137.511 195.018 140.906 196.079 143.877V160.429C193.957 160.429 192.259 160.747 190.986 161.384C189.925 162.233 188.227 162.657 185.893 162.657C184.832 162.657 183.453 162.763 181.755 162.976C180.057 163.4 178.678 163.824 177.617 164.249C176.556 164.249 175.601 164.143 174.752 163.93C174.116 163.93 173.797 163.506 173.797 162.657V154.063Z" fill="#F6C944" style="fill:#F6C944;fill:color(display-p3 0.9647 0.7882 0.2667);fill-opacity:1;"/>
<path d="M355.902 286.162C356.963 286.162 357.601 286.481 357.813 287.117C358.025 287.754 358.663 288.602 359.723 289.662C360.784 292.633 360.996 295.499 360.36 298.258L360.08 300.266C359.841 302.216 359.723 303.986 359.723 305.578L359.703 305.897C359.61 306.64 359.192 307.382 358.449 308.125C357.812 308.761 356.963 309.08 355.902 309.08C351.871 307.17 349.855 303.349 349.855 297.62C349.855 295.498 350.598 292.845 352.083 289.662C352.295 289.026 352.721 288.283 353.357 287.434C354.206 286.586 355.054 286.162 355.902 286.162ZM310.385 257.831L310.043 258.513C309.271 258.174 308.618 257.707 308.102 257.191C307.922 257.011 307.762 256.827 307.617 256.644L310.385 257.831ZM307.613 256.445C308.563 256.38 309.654 256.513 310.729 257.013C310.617 257.277 310.505 257.551 310.385 257.831L307.613 256.445ZM306.247 252.739C306.247 252.938 306.254 253.39 306.367 253.956C306.425 254.246 306.639 255.256 307.393 256.335L307.613 256.445C307.567 256.448 307.522 256.449 307.478 256.453C307.524 256.516 307.567 256.581 307.617 256.644L307.231 256.48C307.085 256.499 306.942 256.519 306.804 256.546C305.615 256.784 304.793 257.303 304.432 257.553C304.016 257.841 303.719 258.121 303.555 258.285C303.165 258.675 302.893 259.058 302.772 259.24L308.224 262.297C308.123 262.559 308.07 262.716 308.058 262.77C307.064 264.413 306.564 266.056 306.564 267.7C306.564 269.397 306.459 271.096 306.247 272.793C306.035 273.854 305.823 275.021 305.611 276.294V279.477C305.399 279.901 305.292 280.75 305.292 282.024L305.312 282.898C305.352 283.694 305.452 284.252 305.611 284.57V297.62L305.629 300.645C305.669 303.669 305.769 306.693 305.928 309.716C306.352 313.748 306.778 318.204 307.202 323.085C307.627 326.055 308.474 328.815 309.747 331.362C311.02 333.696 312.188 336.03 313.249 338.364C314.31 340.486 315.371 342.503 316.432 344.413C317.493 346.323 318.874 348.231 320.571 350.141C321.632 351.202 322.693 352.158 323.754 353.007C324.815 354.068 325.876 355.022 326.937 355.871C327.786 356.932 329.059 357.888 330.756 358.737C332.666 359.586 334.577 360.009 336.486 360.009C342.428 362.344 348.369 363.512 354.311 363.512C356.22 363.512 357.919 363.617 359.404 363.829C360.89 364.014 362.7 363.957 364.836 363.655L365.771 363.512L371.501 362.237C372.893 361.839 373.633 361.442 373.72 361.044L373.728 360.965C373.728 360.753 374.259 360.434 375.32 360.009C376.593 359.161 377.973 358.207 379.458 357.146C380.944 356.297 382.217 355.659 383.278 355.235C384.551 354.598 385.4 353.961 385.824 353.324C386.461 352.688 386.885 351.945 387.097 351.096L388.371 348.549C388.69 347.913 389.187 347.217 389.863 346.461L390.599 345.686C390.917 345.367 391.415 344.392 392.091 342.761L392.827 340.911C393.623 338.683 394.299 336.693 394.856 334.943L395.374 333.272C395.533 332.477 395.87 331.382 396.387 329.99L396.965 328.498C397.814 326.376 398.238 324.889 398.238 324.04L398.874 313.535C398.874 309.875 398.935 306.334 399.054 302.913L399.332 296.149C399.411 293.867 399.465 291.533 399.491 289.146L399.512 285.526C399.512 282.555 399.298 279.688 398.874 276.93C398.715 274.861 398.615 272.733 398.576 270.545L398.557 268.336C397.92 266.638 397.39 264.411 396.965 261.653C396.753 258.894 396.116 256.665 395.055 254.967C393.994 252.845 392.721 250.723 391.235 248.601C389.962 246.267 388.477 244.038 386.78 241.916C385.294 239.794 383.596 237.99 381.686 236.505C379.776 235.02 377.761 233.958 375.639 233.322C374.711 232.394 373.944 231.791 373.341 231.513L373.092 231.413C372.456 231.201 371.925 231.094 371.501 231.094C369.803 230.457 367.893 230.139 365.771 230.139C364.338 229.979 362.846 229.88 361.294 229.84L359.723 229.822C356.965 229.822 354.417 229.926 352.083 230.139H344.444V223.772H351.855C354.311 223.561 356.937 223.455 359.723 223.455C361.937 223.455 364.076 223.562 366.139 223.779C368.451 223.81 370.708 224.136 372.858 224.829C373.706 224.95 374.473 225.162 375.104 225.372C376.638 225.884 377.963 226.843 378.998 227.749C381.355 228.638 383.557 229.895 385.594 231.479C387.967 233.325 390.038 235.527 391.826 238.036C393.641 240.316 395.247 242.714 396.642 245.227C398.16 247.42 399.494 249.644 400.635 251.898C402.223 254.568 402.997 257.644 403.278 260.811C403.662 263.274 404.1 264.99 404.517 266.102L404.923 267.182V268.336C404.923 271.086 405.018 273.724 405.207 276.25C405.654 279.259 405.878 282.352 405.878 285.526C405.878 290.498 405.77 295.267 405.553 299.833C405.346 304.18 405.24 308.747 405.24 313.535V313.728L405.23 313.921L404.594 324.425C404.544 325.598 404.279 326.704 404.04 327.54C403.748 328.564 403.346 329.685 402.876 330.862C402.049 332.928 401.707 334.065 401.616 334.52L401.558 334.814L401.471 335.1C400.792 337.36 399.906 340.017 398.822 343.052L398.797 343.124L398.768 343.197C398.215 344.634 397.704 345.878 397.243 346.867C397.014 347.358 396.76 347.865 396.487 348.338C396.272 348.709 395.811 349.476 395.1 350.187C394.714 350.573 394.448 350.88 394.271 351.107C394.091 351.338 394.046 351.433 394.064 351.397C393.719 352.086 393.375 352.776 393.03 353.465C392.538 354.942 391.751 356.266 390.719 357.405C389.367 359.134 387.526 360.229 386.125 360.93L385.889 361.048L385.642 361.145C384.991 361.406 384.068 361.853 382.836 362.548C381.424 363.553 380.097 364.475 378.851 365.306L378.3 365.673L378.136 365.737C377.473 366.424 376.789 366.865 376.329 367.128C375.293 367.72 374.158 368.099 373.25 368.359L373.067 368.411L367.151 369.725L366.985 369.762L366.817 369.791C363.939 370.271 361.149 370.462 358.615 370.145L358.559 370.139L358.505 370.131C357.385 369.971 355.996 369.878 354.311 369.878C347.866 369.878 341.483 368.67 335.189 366.326C332.767 366.163 330.417 365.553 328.17 364.554L328.04 364.494L327.909 364.43C325.916 363.433 323.999 362.144 322.465 360.434C321.462 359.605 320.476 358.711 319.506 357.755C318.339 356.804 317.192 355.767 316.07 354.644L315.937 354.512L315.813 354.371C313.856 352.169 312.19 349.882 310.868 347.503C309.759 345.506 308.653 343.409 307.555 341.211L307.503 341.106L307.453 340.998C306.458 338.81 305.362 336.613 304.16 334.41L304.104 334.311L304.054 334.209C302.459 331.018 301.414 327.598 300.898 323.986L300.873 323.812L300.859 323.638C300.437 318.788 300.016 314.37 299.597 310.383L299.58 310.218L299.57 310.052C299.352 305.909 299.245 301.764 299.245 297.62V285.48C299.149 285.055 299.089 284.685 299.054 284.405C298.956 283.625 298.925 282.81 298.925 282.024C298.925 281.237 298.956 280.422 299.054 279.642C299.089 279.361 299.148 278.989 299.245 278.563V275.767L299.33 275.247C299.533 274.027 299.74 272.885 299.949 271.824C300.114 270.446 300.198 269.072 300.198 267.7C300.198 264.964 300.968 262.416 302.239 260.115C302.34 259.849 302.455 259.562 302.564 259.288L302.662 259.041L304.595 255.174C305.19 253.784 305.679 252.611 306.065 251.647C306.277 251.117 306.522 250.525 306.759 250.052C306.824 249.921 306.928 249.719 307.063 249.494C307.1 249.434 307.215 249.237 307.405 248.976L309.679 244.761L310.34 244.1C310.73 243.71 311.171 243.203 311.658 242.554L312.35 241.675C313.075 240.794 313.9 239.902 314.795 239.006L315 238.803L315.222 238.616C316.423 237.616 317.959 236.286 319.841 234.613L319.966 234.503L320.094 234.399C322.449 232.515 325.512 230.369 329.208 227.977L330.004 227.461L330.918 227.2C332.122 226.856 333.708 226.303 335.713 225.501C338.529 224.375 341.452 223.772 344.444 223.772V230.139L343.648 230.159C341.791 230.252 339.935 230.67 338.078 231.413L336.547 232.01C335.075 232.567 333.781 233.003 332.667 233.322L330.099 235.013C327.672 236.644 325.663 238.098 324.071 239.371L321.445 241.677C320.65 242.367 319.933 242.977 319.296 243.507C318.235 244.568 317.388 245.524 316.752 246.373L316.273 246.989C315.795 247.586 315.318 248.123 314.841 248.601L312.613 252.739C312.613 252.527 312.401 252.951 311.977 254.012L311.913 254.167L306.247 252.739Z" fill="#F6C944" style="fill:#F6C944;fill:color(display-p3 0.9647 0.7882 0.2667);fill-opacity:1;"/>
<path d="M175.647 349.505C175.647 347.131 175.548 345.012 175.361 343.137L175.33 342.82V335.606L175.344 335.394C175.547 332.352 175.647 329.309 175.647 326.268C175.647 323.268 175.365 320.013 174.778 316.493L174.693 315.972V315.446C174.693 313.173 174.429 310.624 173.86 307.783C173.202 304.493 172.653 301.299 172.211 298.202C171.745 295.15 171.51 292.089 171.51 289.026C171.51 286.821 171.118 285.088 170.489 283.702L170.31 283.31L170.186 282.898C169.638 281.07 169.023 279.507 168.362 278.186L168.159 277.781L168.016 277.353C167.598 276.096 167.048 274.742 166.365 273.285L165.501 272.914L165.026 272.71L164.591 272.435C163.186 271.541 161.292 270.771 158.772 270.246H158.573L152.08 271.129C148.842 271.615 146.736 272.66 145.328 273.921C140.311 278.994 136.819 285.88 135.114 294.974L134.874 296.252L134.152 297.332C133.412 298.443 133.064 299.474 132.963 300.482L132.955 300.552C132.725 302.62 132.382 304.682 131.933 306.738C131.559 308.796 131.275 310.965 131.079 313.249C131.069 315.583 130.961 317.915 130.756 320.246C130.718 322.456 130.314 324.618 129.585 326.713C129.444 327.37 129.494 327.767 129.566 328.021L129.811 328.879V329.77C129.811 330.647 129.654 331.909 129.481 333.146C129.461 334.65 129.356 336.204 129.168 337.802C129.155 339.436 129.051 341.022 128.855 342.556V346.552L128.358 347.547C128.349 347.601 128.339 347.667 128.329 347.748C128.267 348.241 128.219 349.018 128.219 350.141C128.219 351.475 128.193 352.656 128.124 353.618C128.09 354.095 128.039 354.617 127.954 355.127C127.895 355.482 127.729 356.445 127.229 357.446L125.469 360.965H121.534C120.955 360.965 120.157 361.02 119.103 361.155C117.912 361.543 116.653 361.933 115.325 362.312L115.323 362.308C113.017 363.025 110.633 363.114 108.331 362.826C106.476 362.594 104.685 362.241 102.966 361.771C99.9099 361.164 98.143 360.965 97.3436 360.965C95.0511 360.965 92.523 360.49 89.9392 359.786L85.2474 358.505V353.643C85.2474 352.691 85.1656 351.352 84.9677 349.571L84.9283 349.221V348.869C84.9283 347.174 84.7603 345.469 84.4164 343.75L84.3501 343.418L84.319 343.079C84.1084 340.762 83.8971 338.552 83.687 336.451L83.6559 336.136V331.042C83.6557 331.033 83.6538 330.982 83.6476 330.883C83.6403 330.767 83.6287 330.609 83.6082 330.404C83.5668 329.991 83.499 329.447 83.401 328.761L83.3367 328.313V327.859C83.3367 326.428 83.2491 324.995 83.0694 323.557L83.0197 323.163V322.768C83.0197 321.082 82.9247 319.695 82.7648 318.575L82.7565 318.519L82.7503 318.463C82.5684 317.008 82.4294 315.648 82.3959 314.603C82.1807 312.398 82.0643 310.34 82.0643 308.444V302.397L82.0954 302.08C82.2889 300.145 82.3834 298.342 82.3835 296.667V259.497L82.4021 259.253C82.6009 256.668 82.7005 253.967 82.7005 251.148V250.92L82.7171 250.694C82.9203 247.85 83.0197 245.243 83.0197 242.871V242.626L83.0383 242.384C83.1433 241.019 83.2201 239.938 83.2704 239.133C83.2956 238.73 83.3132 238.41 83.3243 238.167C83.3298 238.046 83.3326 237.949 83.3347 237.879C83.3365 237.816 83.3367 237.785 83.3367 237.779V231.413H89.7029C90.3904 231.413 91.4787 231.34 93.0518 231.144C94.8738 230.916 96.5453 230.775 97.9798 230.775V237.141C96.9188 237.141 95.539 237.248 93.8414 237.46L92.6291 237.599C91.4748 237.718 90.4989 237.779 89.7029 237.779L89.6843 238.455C89.6445 239.33 89.545 240.802 89.3859 242.871L89.3652 244.821C89.3254 246.81 89.2259 248.92 89.0667 251.148L89.0481 253.355C89.0083 255.544 88.9088 257.673 88.7497 259.742V296.667L88.7289 298.117C88.6892 299.59 88.5897 301.122 88.4305 302.714V308.444L88.4513 309.755C88.491 311.109 88.5905 312.582 88.7497 314.174L88.7683 314.75C88.8081 315.426 88.9076 316.401 89.0667 317.674C89.2789 319.159 89.3859 320.858 89.3859 322.768C89.598 324.465 89.7029 326.162 89.7029 327.859C89.9151 329.344 90.022 330.406 90.0221 331.042V335.817C90.2343 337.939 90.4461 340.168 90.6583 342.502C91.0827 344.625 91.2945 346.747 91.2945 348.869C91.5067 350.779 91.6136 352.37 91.6136 353.643C93.9479 354.28 95.8582 354.599 97.3436 354.599C98.8291 354.599 101.163 354.917 104.346 355.554C105.831 355.978 107.423 356.295 109.121 356.507C110.818 356.719 112.303 356.614 113.576 356.19C115.062 355.766 116.441 355.34 117.715 354.916C118.829 354.757 119.824 354.657 120.699 354.617L121.534 354.599C121.746 354.174 121.853 352.688 121.853 350.141C121.853 347.596 122.065 345.898 122.489 345.049V342.183C122.648 341.069 122.748 339.896 122.788 338.662L122.808 337.409C123.021 335.711 123.125 334.119 123.125 332.634C123.284 331.521 123.384 330.706 123.424 330.189L123.445 329.77C123.02 328.285 123.02 326.693 123.445 324.995C124.002 323.51 124.316 322.025 124.385 320.54L124.4 319.902C124.612 317.568 124.717 315.233 124.717 312.899C124.929 310.353 125.248 307.912 125.672 305.578C125.991 304.146 126.251 302.714 126.45 301.282L126.628 299.85C126.84 297.728 127.582 295.71 128.855 293.801C130.765 283.615 134.798 275.445 140.952 269.291C143.498 266.957 146.893 265.472 151.137 264.836L158.14 263.88H159.414C162.809 264.517 165.674 265.578 168.008 267.063L170.236 268.019C170.448 268.231 170.66 268.443 170.872 268.655L170.953 268.665C171.138 268.712 171.325 268.92 171.51 269.291C172.571 271.413 173.419 273.429 174.055 275.338C174.904 277.036 175.648 278.946 176.285 281.068C177.346 283.402 177.876 286.055 177.876 289.026L177.885 290.06C177.931 292.474 178.141 294.889 178.513 297.303C178.937 300.273 179.468 303.35 180.104 306.533C180.741 309.716 181.06 312.687 181.06 315.446C181.696 319.265 182.013 322.873 182.013 326.268C182.013 329.451 181.908 332.634 181.696 335.817V342.502C181.908 344.624 182.013 346.959 182.013 349.505C182.013 351.627 182.332 352.795 182.968 353.007C183.817 353.219 184.773 353.431 185.834 353.643C189.653 354.068 192.942 354.279 195.701 354.28C198.671 354.28 201.431 354.068 203.977 353.643H205.886C205.886 352.848 205.947 352.052 206.066 351.256L206.344 349.664C206.424 349.134 206.477 348.603 206.504 348.073L206.524 347.277V343.139C206.684 342.024 206.783 340.91 206.823 339.796L206.841 338.683L209.388 320.221C209.388 320.009 209.414 319.664 209.467 319.187L209.707 317.357C209.814 316.508 209.918 315.631 210.025 314.729L210.344 311.944C210.45 310.989 210.555 310.088 210.661 309.239L210.98 306.852C211.139 305.579 211.239 304.663 211.278 304.106L211.299 303.669C211.458 301.918 211.558 299.988 211.597 297.879L211.616 295.711C211.616 292.74 212.254 290.193 213.527 288.071C214.375 286.797 215.118 285.205 215.755 283.296C216.603 281.174 217.558 278.84 218.618 276.294C219.68 273.959 221.378 272.049 223.712 270.564C226.259 269.078 228.062 268.017 229.123 267.38C231.245 267.38 233.262 267.806 235.172 268.655C237.082 269.504 239.205 270.458 241.538 271.519C244.509 273.641 246.525 276.189 247.586 279.16C248.858 281.918 249.496 284.888 249.496 288.071C250.557 291.042 251.193 294.12 251.405 297.303C251.829 300.274 252.572 303.245 253.633 306.216C254.057 308.55 254.376 311.096 254.588 313.855C254.8 316.401 255.226 318.947 255.862 321.493L255.881 323.822C255.921 326.249 256.02 328.974 256.179 331.998C256.392 335.818 256.287 340.169 255.862 345.049V353.643C255.862 354.492 256.18 354.915 256.816 354.916C257.452 355.075 258.149 355.174 258.905 355.214L259.682 355.235C260.743 354.81 262.123 354.387 263.82 353.962C265.517 353.75 266.896 353.643 267.957 353.643C270.291 353.643 271.989 353.219 273.05 352.371C274.164 351.814 275.603 351.5 277.367 351.43L278.144 351.416V334.864C277.149 332.079 276.808 328.92 277.118 325.389L277.189 324.676C277.613 320.857 277.294 317.356 276.233 314.174C276.233 309.081 275.81 304.518 274.961 300.486C274.112 296.242 273.263 292.103 272.414 288.071C272.414 284.888 271.883 281.811 270.823 278.84C269.974 275.657 269.018 272.474 267.957 269.291L261.909 257.195C259.787 254.224 257.558 251.678 255.224 249.556C253.102 247.434 250.449 245.843 247.266 244.782C243.235 243.721 239.097 242.553 234.853 241.279C230.821 240.006 226.258 240.432 221.165 242.554L220.757 242.786C219.782 243.32 218.646 243.774 217.346 244.145C216.073 244.57 214.905 244.994 213.844 245.418L213.228 245.737C211.836 246.48 210.767 247.222 210.025 247.965C209.176 248.601 207.903 249.451 206.205 250.512C205.145 250.936 204.19 251.36 203.341 251.784C202.705 252.208 202.174 252.632 201.75 253.057L200.973 253.852C200.217 254.648 199.52 255.444 198.884 256.24C198.035 257.088 197.081 258.045 196.02 259.106C195.171 256.984 194.215 255.392 193.154 254.331C192.305 253.058 191.351 251.997 190.29 251.148C189.865 250.511 189.016 249.769 187.743 248.92L179.785 241.916C177.027 240.218 174.374 239.052 171.827 238.415C169.281 237.567 166.416 236.824 163.233 236.188H161.006L146.682 237.779L145.19 238.022C141.754 238.602 138.643 239.264 135.858 240.007L135.263 240.175C132.291 241.058 129.413 242.593 126.628 244.782C125.567 245.842 124.081 247.009 122.172 248.282C120.262 249.343 118.352 250.83 116.442 252.739V251.148C116.442 250.087 116.23 248.814 115.806 247.329C115.594 245.843 115.38 244.568 115.168 243.507C114.85 242.394 114.651 241.579 114.571 241.062L114.532 240.643C114.717 240.086 114.579 239.042 114.115 237.51L113.895 236.824C113.047 236.612 112.623 236.612 112.623 236.824C112.623 236.824 111.561 236.824 109.44 236.824C108.007 236.824 106.574 236.883 105.142 237.002L103.71 237.141H97.9798V230.775H103.413C105.42 230.566 107.429 230.458 109.44 230.458H111.442C112.135 230.308 112.684 230.298 112.94 230.298C113.716 230.298 114.444 230.422 114.977 230.539L115.439 230.648L118.83 231.496L119.934 234.81C120.306 235.926 120.629 237.072 120.811 238.165C120.899 238.692 121.014 239.535 120.962 240.525C121.004 240.7 121.057 240.911 121.126 241.163C121.535 240.828 121.869 240.538 122.127 240.281L122.396 240.011L122.694 239.775C126.245 236.985 130.088 234.958 134.219 233.856C137.658 232.939 141.488 232.153 145.689 231.49L145.832 231.467L145.979 231.45L160.303 229.859L160.653 229.822H163.863L164.481 229.944C167.821 230.612 170.905 231.404 173.713 232.333C176.902 233.174 180.043 234.6 183.122 236.494L183.584 236.778L183.992 237.137L191.666 243.891C192.718 244.616 193.894 245.539 194.861 246.672C195.623 247.335 196.325 248.059 196.975 248.831C197.065 248.739 197.155 248.647 197.247 248.555C198.035 247.767 198.915 247.084 199.81 246.487L200.14 246.268L200.494 246.089C201.362 245.655 202.29 245.237 203.271 244.831C204.506 244.052 205.391 243.46 205.975 243.037C207.428 241.707 209.192 240.626 210.999 239.723L211.235 239.605L211.479 239.508C212.674 239.03 213.962 238.562 215.334 238.105L215.464 238.061L215.597 238.024C216.673 237.716 217.409 237.383 217.891 237.093L218.289 236.855L218.718 236.677C224.737 234.169 230.855 233.37 236.681 235.183C239.815 236.123 242.889 237.002 245.899 237.823L248.887 238.625L249.086 238.677L249.281 238.741C253.239 240.06 256.736 242.104 259.615 244.947C261.95 247.084 264.143 249.537 266.201 252.281L267.09 253.496L267.38 253.902L267.604 254.348L273.651 266.444L273.854 266.848L273.997 267.279C275.077 270.519 276.05 273.762 276.919 277.009C278.077 280.349 278.69 283.801 278.764 287.343C279.572 291.193 280.383 295.136 281.19 299.174L281.526 300.902C282.204 304.701 282.544 308.803 282.589 313.185C283.715 317.06 283.985 321.153 283.516 325.381C283.175 328.445 283.467 330.838 284.139 332.721L284.51 333.759V357.782H278.144C277.03 357.782 276.401 357.908 276.105 357.993C273.525 359.634 270.489 360.009 267.957 360.009C267.326 360.01 266.361 360.072 264.993 360.233C263.642 360.582 262.683 360.891 262.046 361.145L260.906 361.601H259.682C258.374 361.601 257.057 361.483 255.767 361.205C254.129 360.974 252.325 360.176 251.007 358.418C249.657 356.618 249.496 354.68 249.496 353.643V344.772L249.519 344.498C249.924 339.84 250.015 335.8 249.824 332.352L249.822 332.334C249.623 328.565 249.519 325.208 249.502 322.274C248.886 319.655 248.465 317.024 248.245 314.383L248.242 314.362L248.24 314.344C248.056 311.943 247.783 309.759 247.44 307.783C246.349 304.617 245.563 301.423 245.103 298.202L245.07 297.966L245.053 297.726C244.88 295.123 244.362 292.624 243.501 290.213L243.13 289.175V288.071C243.13 285.764 242.674 283.709 241.806 281.827L241.686 281.568L241.59 281.3C241.073 279.851 240.076 278.42 238.272 277.031C236.199 276.09 234.304 275.236 232.586 274.472C231.96 274.194 231.316 273.997 230.644 273.879C229.681 274.447 228.488 275.147 227.067 275.976C225.748 276.83 224.943 277.791 224.44 278.874C223.433 281.292 222.526 283.509 221.719 285.526C221.002 287.632 220.11 289.605 218.983 291.351C218.414 292.302 217.982 293.665 217.982 295.711C217.982 298.78 217.873 301.592 217.647 304.131C217.604 305.048 217.46 306.333 217.296 307.642L217.29 307.698L217.282 307.752C217.081 309.156 216.877 310.787 216.671 312.648C216.455 314.583 216.24 316.417 216.024 318.146L216.018 318.2L216.009 318.256C215.908 318.965 215.839 319.503 215.796 319.889C215.775 320.082 215.763 320.212 215.757 320.291L215.755 320.221V320.658L213.199 339.174C213.18 340.624 213.077 342.072 212.891 343.516V347.277C212.891 348.765 212.74 350.244 212.447 351.708C212.315 352.366 212.252 353.01 212.252 353.643V360.009H204.462C201.689 360.438 198.764 360.646 195.701 360.646C192.636 360.646 189.099 360.411 185.13 359.97L184.856 359.939L184.585 359.885C183.447 359.658 182.391 359.424 181.424 359.183L181.188 359.123L180.956 359.046C177.432 357.871 176.392 354.677 176.111 353.647C175.732 352.257 175.647 350.775 175.647 349.505Z" fill="#F6C944" style="fill:#F6C944;fill:color(display-p3 0.9647 0.7882 0.2667);fill-opacity:1;"/>
<path d="M476.087 122.549C476.087 119.154 475.982 115.759 475.77 112.364C475.558 108.756 475.451 105.573 475.451 102.815V97.7228C475.875 93.4787 476.087 89.8699 476.087 86.899C476.299 83.716 476.299 80.0022 476.087 75.7582C476.511 71.5142 476.618 67.4816 476.406 63.662C476.194 59.6303 476.194 54.962 476.406 49.6572V47.4294C476.618 46.1562 476.511 45.5187 476.087 45.5187V39.1525C478.029 39.1525 479.927 39.9915 481.237 41.5627C482.323 42.866 482.646 44.2445 482.764 44.9509C482.946 46.0413 482.874 47.0936 482.772 47.875V49.7836L482.766 49.9121C482.559 55.0779 482.565 59.5426 482.764 63.3284H482.762C482.985 67.3578 482.879 71.5537 482.466 75.9095C482.659 80.045 482.661 83.7838 482.451 87.1001C482.442 90.2204 482.223 93.8667 481.817 98.0047V102.815C481.817 105.412 481.915 108.459 482.122 111.968H482.124C482.344 115.495 482.453 119.022 482.453 122.549V129.894C482.876 134.27 482.992 138.329 482.76 142.046C482.547 145.458 482.225 148.694 481.798 151.751C481.708 153.907 481.068 156.493 478.996 158.564L477.635 159.928L475.745 160.305C473.508 160.753 470.97 161.192 468.144 161.627L467.903 161.665L467.663 161.683C464.611 161.918 461.704 161.927 458.959 161.677L458.895 161.671L458.833 161.663C457.632 161.529 456.426 161.595 455.187 161.87L454.85 161.944L454.508 161.982C452.581 162.196 450.897 162.338 449.667 162.338H443.301V155.972C443.3 155.047 443.223 154.305 443.106 153.719C442.702 151.702 442.785 149.45 443.023 147.312L443.027 147.268L443.033 147.225C443.176 146.079 443.187 144.779 443.023 143.306L442.983 142.956V121.708C442.772 116.784 442.664 111.758 442.664 106.634C442.664 101.477 442.55 98.4774 442.395 97.2379L442.391 97.1944L442.385 97.1509C442.121 94.7741 442.12 92.3926 442.385 90.0158L442.424 89.6739L442.499 89.3382C442.815 87.9148 442.97 86.5107 442.979 85.1189C442.772 82.1056 442.664 79.0917 442.664 76.0773V75.866L442.679 75.6525C442.882 72.6005 442.983 69.6645 442.983 66.8451C442.983 64.4552 442.882 61.2886 442.673 57.3124V57.2958C442.45 52.848 442.539 48.9385 443.071 45.7467L443.756 41.629L447.806 40.6156C450.18 40.0221 452.862 39.7888 455.716 39.7888C458.061 39.7887 460.633 39.6929 463.439 39.4945C465.956 39.2664 468.476 39.1525 470.995 39.1525V45.5187L469.244 45.5395C467.493 45.5793 465.742 45.6787 463.991 45.8379L461.802 45.9767C459.654 46.0961 457.625 46.1549 455.716 46.155L454.781 46.1653C452.646 46.2117 450.835 46.4218 449.35 46.7932L449.205 47.7879C448.903 50.2017 448.845 53.2656 449.031 56.9787C449.243 61.01 449.35 64.2988 449.35 66.8451L449.329 69.0936C449.289 71.3617 449.19 73.6899 449.031 76.0773L449.051 78.3051C449.091 80.5333 449.191 82.7623 449.35 84.9904L449.339 85.7054C449.293 87.3763 449.085 89.0474 448.713 90.7184L448.643 91.4354C448.504 93.1064 448.528 94.7773 448.713 96.4483C448.926 98.1459 449.031 101.541 449.031 106.634C449.031 111.727 449.137 116.715 449.35 121.596V142.603C449.562 144.513 449.562 146.317 449.35 148.014L449.279 148.71C449.14 150.289 449.164 151.543 449.35 152.472C449.562 153.532 449.667 154.699 449.667 155.972C450.515 155.972 451.896 155.867 453.805 155.655C455.715 155.23 457.625 155.123 459.535 155.336C461.869 155.548 464.415 155.548 467.174 155.336C469.243 155.017 471.133 154.699 472.844 154.38L474.495 154.063C475.132 153.427 475.451 152.47 475.451 151.197C475.769 148.969 476.027 146.622 476.226 144.155L476.406 141.648C476.618 138.253 476.511 134.434 476.087 130.19V122.549ZM476.087 39.1525V45.5187H470.995V39.1525H476.087ZM449.031 6.3662C449.031 6.7902 448.925 7.10933 448.713 7.32154V10.8238C448.926 11.6723 449.03 12.6271 449.031 13.6877C449.031 16.022 448.926 18.251 448.713 20.3731L448.732 21.8652C448.772 23.2576 448.871 24.352 449.031 25.1477L449.051 26.1818C449.091 27.1367 449.191 27.8534 449.35 28.3308C449.35 28.702 450.162 28.9924 451.787 29.2012L452.533 29.2862H468.129L470.058 29.2655C471.849 29.2257 473.223 29.1262 474.178 28.967V8.27689C474.178 7.21586 474.071 6.68534 473.859 6.68534C473.647 6.47314 473.009 6.3662 471.948 6.3662V0C472.637 0 473.457 0.0323785 474.269 0.167859C474.56 0.216299 475.621 0.374887 476.791 1.01337C478.2 1.73666 479.063 2.85355 479.456 3.50846C480.052 4.5013 480.262 5.43993 480.341 5.83568C480.521 6.73675 480.544 7.64588 480.544 8.27689V34.3592L475.225 35.2462C473.399 35.5504 470.937 35.6524 468.129 35.6524H452.216L451.899 35.6192C450.731 35.5025 449.445 35.324 448.316 34.9851C447.793 34.8282 446.844 34.506 445.897 33.8432C445.143 33.315 443.616 31.9875 443.135 29.7504C442.788 28.4295 442.695 26.9989 442.675 25.757C442.426 24.1837 442.347 22.3246 442.347 20.3731V20.056L442.378 19.739C442.568 17.8461 442.664 15.8299 442.664 13.6877C442.664 13.0415 442.598 12.618 442.536 12.3677L442.347 11.6071V4.68554L442.664 4.3664V0H471.948V6.3662H449.031Z" fill="#F6C944" style="fill:#F6C944;fill:color(display-p3 0.9647 0.7882 0.2667);fill-opacity:1;"/>
<path d="M378.706 151.836V151.516L378.739 151.201C378.935 149.239 379.025 147.546 379.025 146.106C379.025 145.441 378.956 144.484 378.77 143.186L378.762 143.13L378.756 143.076C378.526 141.236 378.304 138.896 378.089 136.09L378.057 135.665L378.08 135.24L379.023 118.587C379.018 116.659 378.913 115.62 378.83 115.205L378.706 114.585V113.955C378.706 113.483 378.687 113.171 378.667 112.988C378.665 112.97 378.662 112.955 378.66 112.942L378.389 112.123V111.091C378.389 110.758 378.345 110.231 378.194 109.475L378.07 108.857V103.134C378.07 100.16 377.495 97.1201 376.275 93.9823L376.219 93.8351L376.17 93.688C374.997 90.1707 373.522 86.6275 371.739 83.0611C370.988 81.5588 370.014 80.2063 368.794 78.9869C367.747 77.9402 366.193 76.8485 363.943 75.81L363.854 75.7685L363.765 75.723C363.694 75.6879 363.464 75.5854 363.006 75.4328C362.999 75.4304 362.992 75.4267 362.985 75.4245L362.876 75.4163L355.68 74.7904C353.116 74.6478 350.333 75.0903 347.273 76.2804C345.585 76.9369 344.461 77.5059 343.769 77.9466C343.537 78.0941 343.391 78.2035 343.309 78.2699C341.874 80.7233 340.683 82.6772 339.759 84.0641C339.089 85.0694 338.417 86.074 337.746 87.0793C337.601 87.5976 337.398 88.3552 337.137 89.3983L337.11 89.5019L337.081 89.6034C336.681 91.0037 336.18 92.8059 335.577 95.0164C335.18 97.0119 334.778 99.2163 334.375 101.633L334.366 101.679L334.358 101.727C333.987 103.771 333.826 105.504 333.826 106.953V111.408C333.826 112.913 333.703 114.413 333.473 115.905L332.854 124.595L332.835 124.866L332.792 125.136L330.96 136.739V143.239C330.96 145.636 330.854 147.957 330.643 150.196V160.653L327.808 162.543C326.378 163.496 324.324 164.625 321.916 164.844C319.883 165.224 318.803 165.53 318.378 165.697C316.952 166.306 315.508 166.481 314.487 166.545C313.218 166.624 311.822 166.576 310.377 166.456L310.354 166.454L310.33 166.452C308.456 166.281 305.765 166.263 302.148 166.46C298.134 166.893 294.445 166.946 291.306 166.375C290.094 166.155 289 165.929 288.143 165.695C287.757 165.59 287.146 165.41 286.529 165.13C286.252 165.004 285.624 164.706 284.966 164.168C284.566 163.841 282.817 162.357 282.6 159.702L282.577 159.155V153.392L282.616 153.042C282.803 151.364 282.896 149.688 282.896 148.014V141.615L282.935 141.265C283.139 139.434 283.213 138.222 283.213 137.512C283.213 133.792 283.109 130.798 282.917 128.491C282.685 125.706 282.577 122.332 282.577 118.413C282.577 115.334 282.472 113.05 282.297 111.475L282.26 111.125V110.772C282.26 108.843 282.162 106.343 281.955 103.239L281.941 103.026V102.815C281.941 100.876 282.06 98.5639 282.281 95.9199C282.477 93.3473 282.577 90.6594 282.577 87.8544C282.577 84.3716 282.476 81.0029 282.272 77.7476L282.26 77.5487V69.8707C282.05 66.2339 281.941 62.7847 281.941 59.5256C281.941 56.1096 282.142 52.6949 282.54 49.2842C281.943 47.3877 281.955 45.3976 282.585 43.5065L284.036 39.1525H288.723C289.458 38.9743 290.288 38.8356 291.171 38.8355V45.2017L290.833 45.2203C290.475 45.2601 290.057 45.3596 289.579 45.5187H288.626C288.414 46.1554 288.414 46.7928 288.626 47.4294C288.838 48.0656 288.943 48.7019 288.943 49.338C288.519 52.7333 288.307 56.1303 288.307 59.5256L288.328 61.9523C288.367 64.4191 288.467 67.0056 288.626 69.7111V77.3497C288.838 80.745 288.943 84.2469 288.943 87.8544L288.924 90.0635C288.885 92.2514 288.785 94.3797 288.626 96.4483C288.414 98.9946 288.307 101.117 288.307 102.815C288.519 105.997 288.626 108.65 288.626 110.772C288.838 112.682 288.943 115.23 288.943 118.413L288.964 121.157C289.004 123.783 289.103 126.052 289.262 127.962C289.474 130.509 289.579 133.692 289.579 137.512L289.561 138.386C289.521 139.341 289.421 140.535 289.262 141.967V148.014L289.241 149.448C289.202 150.88 289.102 152.312 288.943 153.744V159.155C288.943 159.367 290.111 159.686 292.445 160.11C294.779 160.535 297.856 160.535 301.675 160.11C305.495 159.898 308.573 159.898 310.908 160.11C313.453 160.322 315.15 160.217 315.999 159.793C317.06 159.369 318.759 158.943 321.093 158.519C321.942 158.519 323.003 158.095 324.276 157.246V149.925C324.489 147.803 324.593 145.574 324.593 143.239V136.237L326.504 124.141L327.14 115.23C327.299 114.275 327.399 113.319 327.439 112.364L327.459 111.408V106.953C327.459 105.282 327.622 103.449 327.946 101.453L328.096 100.587C328.52 98.0405 328.944 95.7063 329.368 93.5844C329.686 92.4174 329.979 91.3561 330.245 90.4013L330.96 87.8544C331.384 86.1567 331.703 84.9888 331.915 84.3521C332.764 83.079 333.613 81.8059 334.462 80.5328C335.099 79.5778 335.914 78.2647 336.909 76.5933L337.964 74.8028C338.707 73.5035 340.587 72.2042 343.603 70.9048L344.966 70.3473C348.786 68.862 352.5 68.2244 356.107 68.4366L363.429 69.0749C363.853 69.0751 364.384 69.1799 365.02 69.392C365.657 69.6041 366.188 69.8161 366.612 70.0282C369.37 71.3014 371.598 72.7882 373.295 74.4858C374.993 76.1834 376.373 78.0937 377.434 80.2158C379.343 84.0351 380.935 87.8543 382.208 91.6737C383.694 95.4934 384.436 99.314 384.436 103.134V108.225C384.648 109.286 384.755 110.243 384.755 111.091C384.967 111.728 385.072 112.683 385.072 113.955C385.284 115.016 385.391 116.608 385.391 118.73L384.436 135.601C384.648 138.36 384.86 140.589 385.072 142.286C385.284 143.771 385.391 145.045 385.391 146.106L385.371 147.417C385.331 148.77 385.231 150.244 385.072 151.836L385.093 153.545C385.133 155.535 385.232 158.36 385.391 162.021C385.763 162.764 386.541 163.1 387.725 163.03L388.255 162.976C389.741 162.764 390.909 162.764 391.758 162.976L401.307 163.93C403.217 164.142 405.02 164.142 406.718 163.93H413.72C414.462 163.93 415.043 163.849 415.461 163.687L415.631 163.613C416.055 163.4 416.267 162.975 416.267 162.338V161.066C416.267 159.368 416.162 157.883 415.95 156.61V152.153C416.109 151.198 416.209 150.243 416.248 149.289L416.267 148.333V129.554C416.267 128.281 416.162 127.006 415.95 125.732V121.596C416.374 116.716 416.479 113.002 416.267 110.455C416.108 108.387 416.008 106.496 415.969 104.785L415.95 103.134C415.95 101.012 415.524 98.9944 414.676 97.0845C413.827 94.9631 413.296 93.0539 413.084 91.3566C412.872 87.7491 412.236 84.8827 411.175 82.7606C410.114 80.4265 409.158 77.4566 408.309 73.8496C408.309 73.4252 407.779 72.3639 406.718 70.6665C405.975 68.9952 405.151 67.6488 404.245 66.6275L403.854 66.2089C402.793 65.1479 401.837 64.4055 400.988 63.9811C400.139 63.3448 399.503 62.8139 399.079 62.3896C396.891 59.0076 394.329 56.2783 391.395 54.2018L390.802 53.7956C387.619 51.6736 383.375 49.1258 378.07 46.1549C377.327 45.7837 375.934 45.4934 373.892 45.2846L372.978 45.2017C370.644 44.9895 368.945 44.7756 367.884 44.5634C365.338 44.1391 363.323 43.8223 361.837 43.6101C360.352 43.1857 358.441 42.867 356.107 42.6548C354.622 42.6548 352.818 42.7597 350.696 42.9718C348.787 42.9718 346.876 43.1857 344.966 43.6101C343.057 43.8223 341.253 44.1391 339.556 44.5634L337.645 45.1208C337.115 45.2799 336.691 45.4127 336.373 45.5187L333.985 46.6937C331.757 47.7681 330.005 48.5435 328.732 49.021C327.247 49.6575 325.55 50.507 323.64 51.5679L320.774 53.4765C320.138 53.6887 319.607 53.9005 319.183 54.1127C318.97 54.3249 318.652 54.5388 318.227 54.751C318.015 54.9634 317.591 55.3876 316.955 56.0234C316.318 56.4477 315.788 57.1903 315.363 58.2511C314.939 59.1 314.301 59.9492 313.453 60.798L313.378 60.769C313.216 60.6296 313.135 60.0013 313.135 58.8873C313.135 58.2511 313.028 57.615 312.816 56.9787C312.816 55.3075 312.654 53.717 312.329 52.2082L312.18 51.5679C311.968 50.719 311.861 49.9747 311.861 49.338L311.225 46.4741C311.013 46.2619 310.694 45.943 310.269 45.5187C309.898 45.1479 309.528 44.9394 309.157 44.8929L308.997 44.8825V38.5163C311.367 38.5163 313.156 39.5747 314.315 40.5887L314.773 41.0176L315.726 41.973L317.038 43.2827L318.01 47.6677C318.571 47.2932 319.272 46.8288 320.109 46.271L320.322 46.128L320.548 46.0016C322.586 44.8693 324.484 43.9144 326.224 43.1687L326.359 43.1107L326.498 43.0589C327.866 42.5459 330.164 41.5067 333.525 39.826L333.929 39.623L334.358 39.48C335.138 39.2201 336.316 38.8696 337.807 38.4438L337.908 38.4148L338.012 38.3878C339.905 37.9145 341.877 37.5652 343.92 37.3247C346.056 36.8725 348.209 36.6315 350.373 36.6098C352.5 36.404 354.423 36.2886 356.107 36.2886H356.395L356.683 36.3134C359.043 36.5279 361.223 36.8609 363.128 37.3641C364.635 37.5841 366.575 37.8915 368.931 38.2842L369.032 38.3008L369.132 38.3215C369.837 38.4626 371.248 38.6507 373.554 38.8603C374.934 38.9764 376.21 39.1303 377.334 39.3411C378.242 39.5113 379.37 39.7751 380.455 40.2467L380.917 40.4622L381.05 40.5286L381.18 40.6011C386.556 43.6115 390.958 46.2486 394.334 48.4987C398.098 51.0085 401.292 54.2869 403.949 58.2159C404.089 58.332 404.274 58.47 404.5 58.6449C405.94 59.476 407.228 60.5807 408.355 61.7078C410.035 63.3879 411.322 65.4603 412.344 67.6699C412.826 68.4553 413.265 69.2041 413.606 69.8873C413.802 70.2797 414.021 70.7553 414.205 71.2695C414.294 71.5177 414.461 72.0061 414.57 72.6435C415.344 75.8826 416.159 78.3428 416.97 80.1267C418.453 83.1902 419.163 86.8152 419.415 90.6728C419.552 91.673 419.901 93.0077 420.586 94.72C421.738 97.3924 422.316 100.214 422.316 103.134C422.316 105.043 422.412 107.301 422.613 109.925L422.689 111.137C422.825 114.002 422.675 117.612 422.316 121.83V125.281C422.524 126.699 422.633 128.124 422.633 129.554V148.333C422.633 149.759 422.523 151.181 422.316 152.596V156.127C422.538 157.675 422.633 159.332 422.633 161.066V162.338C422.633 164.425 421.802 167.643 418.478 169.305C416.724 170.183 414.894 170.296 413.72 170.296H407.066C404.956 170.523 402.797 170.502 400.604 170.259L390.663 169.264L390.348 169.185C390.324 169.184 390.289 169.183 390.245 169.183C390.033 169.183 389.68 169.204 389.157 169.278C386.804 169.615 382.012 169.499 379.697 164.868L379.089 163.654L379.031 162.297C378.82 157.423 378.706 153.901 378.706 151.836ZM308.997 38.5163V44.8825H299.448C298.387 45.0947 297.326 45.2017 296.265 45.2017L295.867 45.1312C295.071 45.0118 294.275 45.0118 293.479 45.1312L293.082 45.2017H291.171V38.8355H292.541C293.928 38.6279 295.325 38.6246 296.712 38.823C297.201 38.8002 297.697 38.7414 298.2 38.6407L298.818 38.5163H308.997Z" fill="#F6C944" style="fill:#F6C944;fill:color(display-p3 0.9647 0.7882 0.2667);fill-opacity:1;"/>
<path d="M255.695 122.549C255.695 119.154 255.59 115.759 255.377 112.364C255.165 108.756 255.058 105.573 255.058 102.815V97.7228C255.483 93.4787 255.695 89.8699 255.695 86.899C255.907 83.716 255.907 80.0022 255.695 75.7582C256.119 71.5142 256.226 67.4816 256.014 63.662C255.802 59.6303 255.801 54.962 256.014 49.6572V47.4294C256.226 46.1562 256.119 45.5187 255.695 45.5187V39.1525C257.637 39.1525 259.535 39.9915 260.844 41.5627C261.93 42.866 262.254 44.2445 262.372 44.9509C262.553 46.0413 262.481 47.0936 262.38 47.875V49.7836L262.374 49.9121C262.167 55.0779 262.172 59.5426 262.372 63.3284H262.37C262.592 67.3578 262.487 71.5537 262.073 75.9095C262.267 80.045 262.269 83.7838 262.059 87.1001C262.05 90.2204 261.831 93.8667 261.425 98.0047V102.815C261.425 105.412 261.523 108.459 261.729 111.968H261.731C261.952 115.495 262.061 119.022 262.061 122.549V129.894C262.484 134.27 262.6 138.329 262.367 142.046C262.154 145.458 261.832 148.694 261.406 151.751C261.316 153.907 260.675 156.493 258.604 158.564L257.243 159.928L255.353 160.305C253.116 160.753 250.578 161.192 247.751 161.627L247.511 161.665L247.271 161.683C244.219 161.918 241.311 161.927 238.567 161.677L238.502 161.671L238.44 161.663C237.24 161.529 236.034 161.595 234.795 161.87L234.457 161.944L234.115 161.982C232.189 162.196 230.505 162.338 229.274 162.338H222.908V155.972C222.908 155.047 222.83 154.305 222.713 153.719C222.31 151.702 222.393 149.45 222.631 147.312L222.635 147.268L222.641 147.225C222.784 146.079 222.794 144.779 222.631 143.306L222.591 142.956V121.708C222.379 116.784 222.272 111.758 222.272 106.634C222.272 101.477 222.158 98.4774 222.003 97.2379L221.998 97.1944L221.992 97.1509C221.728 94.7741 221.728 92.3926 221.992 90.0158L222.032 89.6739L222.106 89.3382C222.423 87.9148 222.578 86.5107 222.587 85.1189C222.379 82.1056 222.272 79.0917 222.272 76.0773V75.866L222.286 75.6525C222.49 72.6005 222.591 69.6645 222.591 66.8451C222.591 64.4552 222.49 61.2886 222.28 57.3124V57.2958C222.058 52.848 222.146 48.9385 222.678 45.7467L223.364 41.629L227.413 40.6156C229.788 40.0221 232.47 39.7888 235.324 39.7888C237.668 39.7887 240.241 39.6929 243.047 39.4945C245.564 39.2664 248.083 39.1525 250.603 39.1525V45.5187L248.852 45.5395C247.101 45.5793 245.349 45.6787 243.598 45.8379L241.41 45.9767C239.262 46.0961 237.233 46.1549 235.324 46.155L234.389 46.1653C232.253 46.2117 230.443 46.4218 228.957 46.7932L228.812 47.7879C228.511 50.2017 228.453 53.2656 228.638 56.9787C228.85 61.01 228.957 64.2988 228.957 66.8451L228.937 69.0936C228.897 71.3617 228.797 73.6899 228.638 76.0773L228.659 78.3051C228.699 80.5333 228.798 82.7623 228.957 84.9904L228.947 85.7054C228.901 87.3763 228.692 89.0474 228.321 90.7184L228.251 91.4354C228.111 93.1064 228.135 94.7773 228.321 96.4483C228.533 98.1459 228.638 101.541 228.638 106.634C228.638 111.727 228.745 116.715 228.957 121.596V142.603C229.17 144.513 229.169 146.317 228.957 148.014L228.887 148.71C228.748 150.289 228.772 151.543 228.957 152.472C229.169 153.532 229.274 154.699 229.274 155.972C230.123 155.972 231.503 155.867 233.413 155.655C235.323 155.23 237.233 155.123 239.143 155.336C241.477 155.548 244.023 155.548 246.781 155.336C248.85 155.017 250.741 154.699 252.451 154.38L254.103 154.063C254.74 153.427 255.058 152.47 255.058 151.197C255.377 148.969 255.634 146.622 255.833 144.155L256.014 141.648C256.226 138.253 256.119 134.434 255.695 130.19V122.549ZM255.695 39.1525V45.5187H250.603V39.1525H255.695ZM228.638 6.3662C228.638 6.7902 228.533 7.10933 228.321 7.32154V10.8238C228.533 11.6723 228.638 12.6271 228.638 13.6877C228.638 16.022 228.533 18.251 228.321 20.3731L228.34 21.8652C228.38 23.2576 228.479 24.352 228.638 25.1477L228.659 26.1818C228.699 27.1367 228.798 27.8534 228.957 28.3308C228.958 28.702 229.77 28.9924 231.394 29.2012L232.14 29.2862H247.737L249.666 29.2655C251.457 29.2257 252.831 29.1262 253.786 28.967V8.27689C253.786 7.21586 253.679 6.68534 253.467 6.68534C253.255 6.47314 252.617 6.3662 251.556 6.3662V0C252.245 0 253.064 0.0323785 253.877 0.167859C254.168 0.216299 255.229 0.374887 256.399 1.01337C257.808 1.73666 258.671 2.85355 259.064 3.50846C259.66 4.5013 259.87 5.43993 259.949 5.83568C260.129 6.73675 260.152 7.64588 260.152 8.27689V34.3592L254.832 35.2462C253.007 35.5504 250.544 35.6524 247.737 35.6524H231.823L231.506 35.6192C230.339 35.5025 229.053 35.324 227.923 34.9851C227.4 34.8282 226.452 34.506 225.505 33.8432C224.75 33.315 223.223 31.9875 222.742 29.7504C222.396 28.4295 222.303 26.9989 222.282 25.757C222.033 24.1837 221.955 22.3246 221.955 20.3731V20.056L221.986 19.739C222.175 17.8461 222.272 15.8299 222.272 13.6877C222.272 13.0415 222.206 12.618 222.144 12.3677L221.955 11.6071V4.68554L222.272 4.3664V0H251.556V6.3662H228.638Z" fill="#F6C944" style="fill:#F6C944;fill:color(display-p3 0.9647 0.7882 0.2667);fill-opacity:1;"/>
<path d="M93.5823 158.519C93.5823 156.145 93.4839 154.026 93.2963 152.15L93.2652 151.833V144.62L93.2798 144.408C93.4826 141.366 93.5823 138.323 93.5823 135.282C93.5823 132.282 93.3008 129.027 92.714 125.507L92.629 124.986V124.46C92.629 122.186 92.3643 119.638 91.796 116.797C91.1381 113.507 90.5887 110.313 90.1464 107.216C89.6804 104.164 89.4459 101.103 89.4459 98.0399C89.4459 95.8346 89.0541 94.1017 88.4243 92.716L88.2461 92.3244L88.1217 91.912C87.5732 90.0837 86.959 88.5213 86.2981 87.1995L86.095 86.7954L85.952 86.3664C85.5332 85.1102 84.9836 83.7564 84.3003 82.2984L83.4362 81.9275L82.9616 81.7244L82.5264 81.4488C81.1212 80.5545 79.2279 79.7846 76.7073 79.2604H76.5084L70.0158 80.1432C66.7773 80.6292 64.6717 81.6741 63.2641 82.9346C58.2469 88.0076 54.7548 94.8935 53.0496 103.987L52.8092 105.266L52.088 106.346C51.3474 107.457 50.9994 108.488 50.8985 109.496L50.8902 109.566C50.6605 111.634 50.3177 113.696 49.8686 115.752C49.4952 117.81 49.2103 119.979 49.0148 122.263C49.005 124.596 48.8969 126.928 48.6915 129.26C48.6535 131.47 48.2493 133.631 47.5206 135.727C47.3797 136.384 47.4295 136.781 47.502 137.035L47.7465 137.893V138.784C47.7465 139.661 47.5899 140.923 47.417 142.16C47.3969 143.664 47.2918 145.217 47.1041 146.816C47.0903 148.45 46.9866 150.036 46.7912 151.57V155.566L46.2938 156.56C46.2851 156.615 46.2748 156.681 46.2648 156.761C46.2031 157.255 46.155 158.032 46.155 159.155C46.155 160.489 46.1283 161.67 46.0596 162.632C46.0256 163.109 45.9746 163.631 45.8897 164.141C45.8305 164.496 45.6647 165.459 45.1644 166.46L43.405 169.979H39.4696C38.8908 169.979 38.0923 170.034 37.0388 170.169C35.8474 170.557 34.5883 170.947 33.2609 171.326L33.2588 171.322C30.9531 172.039 28.5686 172.127 26.2668 171.84C24.4113 171.608 22.621 171.255 20.9015 170.785C17.8456 170.178 16.0787 169.979 15.2793 169.979C12.9868 169.979 10.4586 169.504 7.87486 168.8L3.1831 167.519V162.657C3.1831 161.705 3.10123 160.366 2.90334 158.585L2.86396 158.235V157.883C2.86396 156.188 2.69592 154.483 2.3521 152.764L2.28578 152.432L2.2547 152.092C2.04406 149.775 1.83276 147.566 1.62264 145.465L1.59155 145.15V140.056C1.59137 140.047 1.58946 139.996 1.58326 139.897C1.57598 139.78 1.56435 139.623 1.54389 139.418C1.50252 139.004 1.43472 138.461 1.33665 137.775L1.27241 137.327V136.873C1.27238 135.442 1.18473 134.008 1.00508 132.571L0.955344 132.177V131.782C0.955344 130.096 0.860343 128.709 0.700448 127.589L0.692158 127.533L0.685941 127.477C0.504035 126.022 0.365032 124.662 0.331573 123.617C0.116358 121.412 1.67435e-05 119.354 0 117.458V111.411L0.031085 111.093C0.224557 109.159 0.319108 107.356 0.319139 105.681V68.5112L0.33779 68.2667C0.536572 65.6822 0.636196 62.9811 0.636206 60.1618V59.9338L0.652784 59.708C0.855963 56.8635 0.955344 54.2573 0.955344 51.8849V51.6404L0.973995 51.3979C1.07899 50.033 1.15574 48.952 1.2061 48.1464C1.23125 47.744 1.2489 47.4242 1.25998 47.1807C1.26549 47.0595 1.26826 46.9633 1.27034 46.8927C1.27218 46.8297 1.27237 46.7989 1.27241 46.7932V40.427H7.63861C8.32604 40.427 9.4144 40.3542 10.9875 40.1576C12.8095 39.9298 14.4809 39.7887 15.9155 39.7887V46.1549C14.8545 46.1549 13.4747 46.2619 11.7771 46.4741L10.5647 46.6129C9.41049 46.7323 8.43458 46.7932 7.63861 46.7932L7.61996 47.4688C7.58017 48.3441 7.48068 49.8161 7.32154 51.8849L7.30082 53.835C7.26103 55.8244 7.16156 57.9336 7.00241 60.1618L6.98375 62.3688C6.94398 64.5575 6.84451 66.6865 6.68534 68.7558V105.681L6.66462 107.131C6.62484 108.604 6.52539 110.136 6.3662 111.728V117.458L6.38692 118.769C6.4267 120.122 6.52615 121.596 6.68534 123.188L6.70399 123.764C6.74377 124.44 6.84328 125.415 7.00241 126.688C7.21461 128.173 7.32154 129.872 7.32154 131.782C7.53368 133.479 7.63858 135.176 7.63861 136.873C7.85073 138.358 7.95766 139.42 7.95775 140.056V144.831C8.16996 146.953 8.38175 149.182 8.59396 151.516C9.01837 153.638 9.23016 155.76 9.23016 157.883C9.44237 159.792 9.5493 161.384 9.5493 162.657C11.8836 163.294 13.7938 163.613 15.2793 163.613C16.7648 163.613 19.0989 163.931 22.2817 164.568C23.7671 164.992 25.3588 165.309 27.0564 165.521C28.7536 165.733 30.2388 165.628 31.5119 165.204C32.9973 164.78 34.3771 164.354 35.6503 163.93C36.7642 163.77 37.7592 163.671 38.6345 163.631L39.4696 163.613C39.6818 163.188 39.7888 161.701 39.7888 159.155C39.7888 156.609 40.0008 154.912 40.425 154.063V151.197C40.5841 150.083 40.6836 148.91 40.7234 147.676L40.7441 146.423C40.9562 144.725 41.0612 143.133 41.0612 141.648C41.2202 140.535 41.3198 139.72 41.3596 139.203L41.3803 138.784C40.9559 137.299 40.9559 135.707 41.3803 134.009C41.9372 132.524 42.2514 131.039 42.3211 129.554L42.3356 128.916C42.5478 126.582 42.6527 124.247 42.6527 121.913C42.8649 119.367 43.1837 116.926 43.6081 114.592C43.9263 113.16 44.1863 111.728 44.3852 110.296L44.5634 108.864C44.7756 106.742 45.5179 104.724 46.7912 102.815C48.701 92.6287 52.7334 84.459 58.8874 78.3051C61.4337 75.9709 64.829 74.4862 69.0729 73.8496L76.0753 72.8942H77.3497C80.7448 73.5308 83.6095 74.5919 85.9437 76.0773L88.1715 77.0327C88.3835 77.2447 88.5956 77.4568 88.8077 77.6689L88.8885 77.6792C89.074 77.7259 89.2605 77.9341 89.4459 78.3051C90.5067 80.4266 91.3542 82.4427 91.9908 84.3521C92.8396 86.0497 93.584 87.9601 94.2206 90.0821C95.2816 92.4163 95.8121 95.0691 95.8121 98.0399L95.8204 99.074C95.8668 101.488 96.0769 103.903 96.4483 106.317C96.8727 109.287 97.4033 112.364 98.0399 115.547C98.6765 118.73 98.9952 121.701 98.9952 124.46C99.6318 128.279 99.9485 131.887 99.9485 135.282C99.9485 138.465 99.8436 141.648 99.6314 144.831V151.516C99.8436 153.638 99.9485 155.972 99.9485 158.519C99.9485 160.641 100.267 161.809 100.904 162.021C101.753 162.233 102.709 162.445 103.77 162.657C107.589 163.082 110.878 163.293 113.636 163.293C116.607 163.293 119.367 163.082 121.913 162.657H123.822C123.822 161.861 123.883 161.066 124.002 160.27L124.28 158.678C124.359 158.148 124.413 157.617 124.439 157.087L124.46 156.291V152.153C124.619 151.038 124.719 149.924 124.758 148.81L124.777 147.697L127.324 129.235C127.324 129.023 127.35 128.678 127.403 128.201L127.643 126.371C127.749 125.522 127.854 124.645 127.96 123.743L128.279 120.958C128.385 120.003 128.49 119.102 128.596 118.253L128.916 115.866C129.075 114.593 129.174 113.677 129.214 113.12L129.235 112.683C129.394 110.932 129.493 109.002 129.533 106.893L129.552 104.725C129.552 101.754 130.189 99.2066 131.462 97.0845C132.311 95.8114 133.054 94.2194 133.69 92.3099C134.539 90.188 135.493 87.8537 136.554 85.3075C137.615 82.9732 139.314 81.0629 141.648 79.5775C144.194 78.0921 145.998 77.031 147.059 76.3944C149.181 76.3944 151.198 76.82 153.108 77.6689C155.018 78.5176 157.14 79.4719 159.474 80.5328C162.445 82.6548 164.46 85.2027 165.521 88.1735C166.794 90.9318 167.432 93.902 167.432 97.0845C168.493 100.055 169.128 103.134 169.341 106.317C169.765 109.288 170.507 112.259 171.568 115.23C171.993 117.564 172.311 120.11 172.524 122.868C172.736 125.415 173.162 127.961 173.798 130.507L173.817 132.836C173.857 135.263 173.956 137.988 174.115 141.012C174.327 144.831 174.223 149.183 173.798 154.063V162.657C173.798 163.506 174.115 163.929 174.751 163.93C175.388 164.089 176.085 164.188 176.84 164.228L177.617 164.249C178.678 163.824 180.058 163.401 181.756 162.976C183.453 162.764 184.831 162.657 185.892 162.657C188.226 162.657 189.925 162.233 190.986 161.385C192.1 160.828 193.539 160.514 195.303 160.444L196.08 160.429V143.878C195.085 141.093 194.743 137.934 195.054 134.403L195.124 133.69C195.549 129.871 195.23 126.37 194.169 123.188C194.169 118.095 193.745 113.532 192.897 109.5C192.048 105.256 191.199 101.116 190.35 97.0845C190.35 93.9018 189.819 90.825 188.758 87.8544C187.909 84.6713 186.953 81.4882 185.892 78.3051L179.845 66.2089C177.723 63.2381 175.494 60.6923 173.16 58.5703C171.038 56.4483 168.385 54.8566 165.202 53.7956C161.17 52.7346 157.033 51.5665 152.789 50.2934C148.757 49.0202 144.194 49.4458 139.101 51.5678L138.693 51.8C137.718 52.3337 136.581 52.7881 135.282 53.1594C134.009 53.5838 132.84 54.0074 131.78 54.4318L131.164 54.7509C129.771 55.4937 128.703 56.236 127.96 56.9787C127.111 57.6153 125.838 58.4648 124.141 59.5256C123.08 59.9499 122.126 60.3737 121.277 60.798C120.641 61.2222 120.11 61.6463 119.685 62.0704L118.908 62.8662C118.152 63.6619 117.456 64.4578 116.819 65.2535C115.971 66.1024 115.016 67.0585 113.955 68.1196C113.107 65.9975 112.15 64.4059 111.089 63.3449C110.241 62.0718 109.286 61.0106 108.225 60.1618C107.801 59.5252 106.952 58.7829 105.679 57.934L97.7208 50.9296C94.9623 49.2321 92.3093 48.066 89.763 47.4294C87.2166 46.5806 84.352 45.8382 81.1691 45.2016H78.9413L64.6173 46.7932L63.1253 47.0357C59.69 47.6159 56.5789 48.2782 53.7936 49.021L53.1988 49.1888C50.2271 50.0716 47.3486 51.6073 44.5634 53.7956C43.5026 54.8564 42.0172 56.0229 40.1079 57.2958C38.198 58.3568 36.2878 59.8435 34.3779 61.7534V60.1618C34.3779 59.101 34.1659 57.8275 33.7417 56.3425C33.5295 54.8571 33.3156 53.5822 33.1034 52.5211C32.7854 51.408 32.5862 50.5929 32.5066 50.0758L32.4672 49.6572C32.6529 49.1001 32.5148 48.0555 32.0507 46.5238L31.831 45.8379C30.9822 45.6257 30.5586 45.6257 30.5586 45.8379C30.5586 45.8379 29.497 45.8379 27.3755 45.8379C25.9431 45.8379 24.5099 45.8967 23.0775 46.0161L21.6455 46.1549H15.9155V39.7887H21.3492C23.3558 39.5799 25.3651 39.4717 27.3755 39.4717H29.3774C30.0707 39.3222 30.62 39.3121 30.8757 39.3121C31.6512 39.3121 32.38 39.4362 32.9128 39.5525L33.3749 39.6623L36.7652 40.5099L37.8698 43.8235C38.242 44.9402 38.5642 46.0858 38.7464 47.1787C38.8341 47.7054 38.9497 48.5481 38.8976 49.537C38.9399 49.7117 38.9929 49.9243 39.0614 50.1773C39.4707 49.842 39.8048 49.552 40.0623 49.2945L40.3317 49.0251L40.6301 48.7889C44.1806 45.9992 48.0236 43.9718 52.1543 42.8703C55.5939 41.9531 59.4239 41.167 63.6247 40.5037L63.7677 40.4809L63.9148 40.4643L78.2388 38.8728L78.589 38.8354H81.799L82.4166 38.9577C85.7563 39.6257 88.8407 40.418 91.6488 41.3471C94.8376 42.1878 97.9783 43.6137 101.057 45.5084L101.519 45.7923L101.928 46.1508L109.601 52.9045C110.654 53.6304 111.83 54.5531 112.797 55.6856C113.558 56.3487 114.26 57.0727 114.911 57.8449C115.001 57.7533 115.091 57.6607 115.182 57.5693C115.971 56.7807 116.85 56.0981 117.746 55.5011L118.075 55.2815L118.43 55.1032C119.298 54.6693 120.226 54.2507 121.206 53.8453C122.442 53.0657 123.326 52.4739 123.911 52.0507C125.364 50.7211 127.128 49.6404 128.934 48.737L129.17 48.6189L129.415 48.5215C130.61 48.0437 131.898 47.5758 133.27 47.1186L133.4 47.075L133.533 47.0377C134.609 46.7302 135.344 46.3967 135.827 46.1073L136.225 45.8689L136.654 45.6907C142.673 43.1827 148.79 42.3842 154.617 44.1966C157.751 45.1368 160.825 46.0159 163.834 46.8367L166.823 47.6387L167.022 47.6905L167.216 47.7548C171.172 49.0733 174.667 51.1153 177.545 53.9552C179.882 56.0934 182.077 58.5487 184.137 61.2954L185.026 62.5098L185.316 62.9159L185.54 63.3615L191.587 75.4577L191.79 75.8618L191.933 76.2928C193.013 79.5325 193.985 82.7762 194.855 86.0224C196.012 89.3633 196.625 92.8152 196.699 96.3571C197.51 100.218 198.322 104.174 199.132 108.225C200.027 112.489 200.473 117.158 200.525 122.199C201.651 126.074 201.921 130.167 201.451 134.395C201.111 137.459 201.403 139.852 202.075 141.735L202.446 142.773V166.796H196.08C194.966 166.796 194.336 166.922 194.041 167.007C191.461 168.648 188.425 169.023 185.892 169.023C185.262 169.023 184.296 169.086 182.929 169.247C181.578 169.596 180.618 169.905 179.982 170.159L178.842 170.615H177.617C176.309 170.615 174.993 170.497 173.703 170.219C172.065 169.987 170.261 169.19 168.943 167.432C167.593 165.632 167.432 163.694 167.432 162.657V153.786L167.455 153.512C167.86 148.854 167.951 144.814 167.759 141.366L167.757 141.347C167.559 137.579 167.455 134.222 167.438 131.288C166.822 128.669 166.4 126.038 166.18 123.397L166.178 123.376L166.176 123.358C165.991 120.957 165.719 118.772 165.376 116.797C164.284 113.631 163.499 110.437 163.039 107.216L163.005 106.98L162.989 106.74C162.815 104.136 162.298 101.638 161.437 99.2273L161.066 98.1891V97.0845C161.066 94.7781 160.61 92.7227 159.741 90.8406L159.621 90.5815L159.526 90.3142C159.008 88.865 158.012 87.434 156.208 86.0452C154.134 85.1041 152.24 84.2494 150.522 83.4859C149.895 83.2076 149.252 83.0113 148.58 82.8932C147.617 83.4608 146.424 84.1614 145.003 84.9904C143.684 85.8438 142.879 86.8054 142.375 87.8875C141.368 90.306 140.462 92.5231 139.654 94.5397C138.938 96.6455 138.045 98.6192 136.919 100.365C136.35 101.316 135.918 102.679 135.918 104.725C135.918 107.794 135.809 110.606 135.582 113.145C135.54 114.061 135.396 115.347 135.232 116.656L135.226 116.712L135.218 116.765C135.017 118.17 134.813 119.801 134.606 121.662C134.391 123.597 134.176 125.431 133.96 127.16L133.953 127.214L133.945 127.27C133.844 127.979 133.775 128.517 133.732 128.903C133.71 129.095 133.698 129.226 133.692 129.305L133.69 129.235V129.672L131.135 148.188C131.116 149.638 131.012 151.085 130.826 152.53V156.291C130.826 157.779 130.675 159.258 130.383 160.722C130.251 161.38 130.188 162.024 130.188 162.657V169.023H122.398C119.624 169.452 116.699 169.66 113.636 169.66C110.572 169.66 107.035 169.425 103.065 168.984L102.792 168.953L102.52 168.899C101.382 168.672 100.326 168.438 99.36 168.197L99.1237 168.136L98.8916 168.06C95.3675 166.885 94.3274 163.691 94.0465 162.661C93.6672 161.271 93.5823 159.789 93.5823 158.519Z" fill="#F6C944" style="fill:#F6C944;fill:color(display-p3 0.9647 0.7882 0.2667);fill-opacity:1;"/>
</svg>
