<svg width="20" height="18" viewBox="0 0 20 18" fill="none" xmlns="http://www.w3.org/2000/svg">
<path d="M0 5.51615C2.04469e-05 4.40335 0.337593 3.31674 0.968133 2.39982C1.59867 1.4829 2.49252 0.778812 3.53161 0.380553C4.5707 -0.0177062 5.70616 -0.0914023 6.78801 0.169198C7.86987 0.429797 8.84723 1.01243 9.591 1.84015C9.64339 1.89617 9.70672 1.94082 9.77708 1.97135C9.84743 2.00188 9.92331 2.01764 10 2.01764C10.0767 2.01764 10.1526 2.00188 10.2229 1.97135C10.2933 1.94082 10.3566 1.89617 10.409 1.84015C11.1504 1.00705 12.128 0.419521 13.2116 0.155755C14.2952 -0.108011 15.4335 -0.0355 16.4749 0.363637C17.5163 0.762774 18.4114 1.46961 19.0411 2.39006C19.6708 3.3105 20.0053 4.40091 20 5.51615C20 7.80615 18.5 9.51615 17 11.0162L11.508 16.3292C11.3217 16.5432 11.0919 16.7151 10.834 16.8335C10.5762 16.9518 10.296 17.014 10.0123 17.0158C9.72854 17.0176 9.44765 16.959 9.18829 16.8439C8.92893 16.7288 8.69703 16.5598 8.508 16.3482L3 11.0162C1.5 9.51615 0 7.81615 0 5.51615Z" fill="#F6C944" style="fill:#F6C944;fill:color(display-p3 0.9647 0.7882 0.2667);fill-opacity:1;"/>
</svg>
