<svg width="22" height="27" viewBox="0 0 22 27" fill="none" xmlns="http://www.w3.org/2000/svg">
<path d="M20.9719 9.36429C20.8223 9.4813 18.1808 10.9816 18.1808 14.3178C18.1808 18.1766 21.542 19.5417 21.6426 19.5755C21.6271 19.6587 21.1086 21.4451 19.8704 23.2653C18.7664 24.867 17.6133 26.4662 15.8593 26.4662C14.1052 26.4662 13.6538 25.4391 11.6288 25.4391C9.65548 25.4391 8.95384 26.5 7.34937 26.5C5.7449 26.5 4.62538 25.0179 3.33819 23.1977C1.84722 21.0603 0.642578 17.7397 0.642578 14.5882C0.642578 9.5333 3.90311 6.85244 7.11205 6.85244C8.81713 6.85244 10.2385 7.98095 11.309 7.98095C12.3279 7.98095 13.9169 6.78483 15.8567 6.78483C16.5918 6.78483 19.2333 6.85243 20.9719 9.36429ZM14.9358 4.64481C15.738 3.68532 16.3055 2.35399 16.3055 1.02265C16.3055 0.838034 16.29 0.650815 16.2565 0.5C14.9513 0.549405 13.3984 1.37629 12.462 2.471C11.7268 3.31348 11.0407 4.64481 11.0407 5.99435C11.0407 6.19717 11.0742 6.39999 11.0897 6.465C11.1722 6.4806 11.3064 6.4988 11.4405 6.4988C12.6116 6.4988 14.0845 5.70832 14.9358 4.64481Z" fill="white" style="fill:white;fill-opacity:1;"/>
</svg>
