<svg width="25" height="24" viewBox="0 0 25 24" fill="none" xmlns="http://www.w3.org/2000/svg">
<path d="M24.6426 12.2729C24.6426 11.422 24.5647 10.6038 24.4199 9.81836H12.8875V14.4657H19.4775C19.188 15.9603 18.3198 17.2258 17.0173 18.0767V21.0986H20.9914C23.3068 19.004 24.6426 15.9276 24.6426 12.2729Z" fill="#4285F4" style="fill:#4285F4;fill:color(display-p3 0.2588 0.5216 0.9569);fill-opacity:1;"/>
<path d="M12.8871 24C16.1933 24 18.9654 22.9313 20.9914 21.0986L17.0173 18.0767C15.9264 18.7967 14.5346 19.2326 12.8871 19.2326C9.70345 19.2326 6.99845 17.1271 6.02998 14.2907H1.95577V17.389C3.97062 21.3054 8.10049 24 12.8871 24Z" fill="#34A853" style="fill:#34A853;fill:color(display-p3 0.2039 0.6588 0.3255);fill-opacity:1;"/>
<path d="M6.03033 14.2806C5.78544 13.5606 5.64072 12.7969 5.64072 12.0006C5.64072 11.2042 5.78544 10.4405 6.03033 9.72051V6.62228H1.95612C1.12124 8.23685 0.642578 10.0587 0.642578 12.0006C0.642578 13.9424 1.12124 15.7643 1.95612 17.3788L5.12866 14.957L6.03033 14.2806Z" fill="#FBBC05" style="fill:#FBBC05;fill:color(display-p3 0.9843 0.7373 0.0196);fill-opacity:1;"/>
<path d="M12.8871 4.77827C14.6905 4.77827 16.2934 5.38919 17.5736 6.56739L21.0801 3.13096C18.9539 1.18911 16.1933 0 12.8871 0C8.10049 0 3.97096 2.69493 1.95612 6.62228L6.03033 9.72051C6.99879 6.8841 9.70345 4.77827 12.8871 4.77827Z" fill="#EA4335" style="fill:#EA4335;fill:color(display-p3 0.9176 0.2627 0.2078);fill-opacity:1;"/>
</svg>
